<?xml version="1.0" standalone="no"?>
<!DOCTYPE svg PUBLIC "-//W3C//DTD SVG 20010904//EN"
 "http://www.w3.org/TR/2001/REC-SVG-20010904/DTD/svg10.dtd">
<svg version="1.0" xmlns="http://www.w3.org/2000/svg"
 width="1280.000000pt" height="779.000000pt" viewBox="0 0 1280.000000 779.000000"
 preserveAspectRatio="xMidYMid meet">
<metadata>
Created by potrace 1.15, written by Peter Selinger 2001-2017
</metadata>
<g transform="translate(0.000000,779.000000) scale(0.100000,-0.100000)"
fill="#000000" stroke="none">
<path d="M10660 7780 c-272 -3 -2380 -7 -4685 -8 -2318 -2 -4333 -7 -4510 -12
-452 -13 -515 -25 -515 -98 0 -20 -9 -69 -20 -107 -11 -39 -43 -241 -71 -450
-307 -2317 -387 -2910 -643 -4755 -25 -179 -64 -464 -86 -635 -22 -170 -60
-434 -83 -585 -51 -339 -52 -406 -8 -540 37 -110 120 -280 181 -371 53 -78
144 -175 185 -197 27 -15 398 -17 4265 -20 2329 -2 5010 -1 5957 3 l1722 7
108 176 c59 97 149 231 200 298 50 68 102 141 113 165 39 75 37 155 -9 424
-22 132 -63 397 -91 590 -28 192 -84 566 -125 830 -41 264 -101 678 -135 920
-113 813 -260 1817 -325 2205 -35 212 -107 678 -160 1035 -131 887 -148 980
-186 1029 -10 13 -53 43 -94 65 l-74 41 -208 -2 c-114 -2 -431 -5 -703 -8z
m657 -78 c377 -9 358 -5 392 -96 23 -64 39 -157 96 -566 25 -179 61 -415 80
-525 60 -341 107 -647 108 -715 2 -58 0 -65 -18 -68 -31 -4 -55 20 -65 65 -5
22 -46 292 -90 599 -140 973 -181 1182 -233 1201 -28 10 -9867 4 -10210 -7
-211 -6 -261 -10 -274 -22 -27 -28 -64 -285 -183 -1288 -56 -472 -65 -527 -89
-554 -16 -19 -70 -46 -92 -46 -15 0 -15 2 76 625 41 286 93 658 115 826 43
332 74 500 99 530 15 19 37 20 476 30 253 6 1081 14 1840 19 1597 9 7481 4
7972 -8z m88 -181 c247 -18 -1090 -28 -6185 -47 -2007 -7 -3949 10 -3924 35 3
3 335 9 737 12 1046 8 9264 8 9372 0z m61 -89 c30 -17 -3 -24 -140 -34 -241
-16 -3191 -24 -6206 -17 -2919 7 -3730 14 -3730 29 0 14 3251 23 4928 14 900
-5 1810 -6 2022 -1 1311 25 3087 31 3126 9z m-47 -86 c65 -41 -198 -46 -3129
-58 -1510 -6 -2824 -12 -2920 -12 -335 -1 -3427 23 -3679 29 -253 7 -281 9
-281 26 0 5 1829 10 4408 10 2424 1 4583 5 4797 9 480 9 786 7 804 -4z m221
-231 c71 -398 189 -1278 168 -1257 -5 5 -24 125 -43 268 -19 142 -41 302 -49
354 -9 52 -22 154 -31 225 -9 72 -24 168 -35 215 -30 130 -50 256 -55 345 -6
106 5 68 45 -150z m-66 25 c10 -80 53 -357 96 -617 84 -499 114 -702 107 -709
-3 -3 -7 5 -10 18 -22 89 -237 1411 -237 1457 0 22 2 23 14 11 7 -9 20 -74 30
-160z m-9784 110 c10 -7 -14 -10 -78 -10 -60 0 -91 4 -87 10 8 13 145 13 165
0z m1000 1 l75 -6 -100 -7 c-130 -10 -498 -10 -522 0 -40 16 386 27 547 13z
m5918 -20 c45 -23 99 -81 118 -127 18 -43 17 -122 -1 -154 -13 -24 -14 -21
-15 40 0 79 -32 155 -65 155 -18 0 -21 -8 -25 -76 -6 -74 -15 -98 -50 -126
-25 -21 -91 -15 -142 12 -57 30 -78 32 -78 5 0 -25 59 -84 113 -112 55 -29 25
-37 -36 -10 -110 49 -145 187 -81 313 51 101 158 133 262 80z m645 10 c9 -10
8 -16 -8 -27 -17 -13 -59 -15 -262 -12 -165 2 -246 7 -254 15 -17 17 19 25
146 34 157 10 363 5 378 -10z m1045 5 c10 -11 -5 -16 -79 -26 -81 -10 -417
-11 -463 -1 -51 11 -42 29 16 34 71 6 519 0 526 -7z m279 -1 c87 -26 153 -117
153 -210 0 -119 -95 -215 -212 -215 -69 1 -125 27 -171 80 -100 117 -52 291
93 340 67 24 74 24 137 5z m705 -3 c19 -19 -64 -27 -287 -26 -207 0 -286 6
-271 22 22 21 537 25 558 4z m-7662 -2 c-85 -10 -358 -10 -435 0 -36 4 51 7
220 7 171 0 255 -3 215 -7z m898 1 c22 -13 -77 -21 -273 -21 -197 0 -315 8
-315 21 0 12 571 11 588 0z m854 -17 c22 -15 -65 -22 -253 -23 -181 -1 -269 6
-269 20 0 4 24 10 53 12 84 7 454 0 469 -9z m339 -16 c91 -50 133 -152 95
-226 -9 -18 -19 -32 -21 -32 -3 0 -2 20 2 45 6 50 -18 129 -43 139 -16 6 -34
-30 -34 -70 0 -53 -44 -108 -99 -124 -41 -11 -81 1 -130 40 -65 53 -82 17 -31
-63 34 -54 35 -57 17 -57 -22 0 -54 42 -66 85 -33 123 20 249 119 283 52 17
142 8 191 -20z m717 17 c38 -38 -264 -60 -482 -35 -75 9 -134 25 -116 31 40
14 584 18 598 4z m909 1 c17 -17 -26 -21 -224 -25 -221 -3 -352 4 -337 19 5 5
34 11 64 13 78 7 490 1 497 -7z m279 -1 c86 -26 154 -106 154 -181 0 -43 -45
-164 -61 -164 -4 0 -1 17 8 38 21 49 21 134 -1 167 -9 14 -20 25 -25 25 -5 0
-11 -26 -15 -57 -10 -87 -39 -113 -123 -113 -65 0 -114 26 -136 73 -9 20 -22
37 -27 37 -6 0 -10 -31 -10 -72 -1 -65 -2 -71 -15 -54 -21 27 -30 121 -16 168
18 58 67 106 131 128 67 24 74 24 136 5z m664 6 l45 -8 -30 -14 c-52 -24 -535
-16 -510 9 16 16 414 27 495 13z m1300 -12 c108 -49 152 -133 119 -228 -17
-48 -26 -38 -32 35 -5 63 -26 112 -54 121 -6 2 -13 -20 -16 -51 -12 -122 -96
-178 -187 -126 -101 58 -113 52 -70 -39 17 -35 29 -66 26 -68 -2 -2 -17 12
-34 33 -39 47 -55 108 -50 188 3 52 9 71 28 92 59 64 181 83 270 43z m-6632
-24 c57 -17 115 -62 138 -106 16 -31 19 -126 5 -148 -8 -12 -11 -8 -16 15 -26
113 -46 153 -87 175 -24 13 -41 -5 -32 -33 3 -10 5 -40 6 -68 0 -58 -18 -91
-65 -121 -64 -40 -147 2 -147 75 0 43 -24 66 -39 37 -14 -26 -14 -89 0 -130 6
-17 8 -39 5 -48 -6 -15 -8 -15 -23 0 -21 20 -22 157 -3 227 20 76 100 135 186
139 11 1 44 -6 72 -14z m1781 -1 c89 -26 170 -126 159 -196 -3 -19 -8 -15 -30
27 -30 58 -72 100 -88 90 -7 -4 -11 -27 -9 -54 4 -73 1 -87 -27 -114 -53 -53
-115 -44 -183 27 -19 20 -41 36 -48 36 -36 0 5 -121 60 -177 24 -26 27 -33 13
-33 -86 0 -140 194 -85 307 42 88 130 120 238 87z m-2996 -13 c19 -19 -46 -34
-173 -39 -136 -5 -200 9 -200 44 0 16 15 17 181 11 102 -3 186 -10 192 -16z
m346 -6 c87 -44 128 -116 118 -206 -9 -78 -26 -96 -27 -28 0 63 -23 151 -44
168 -20 17 -26 3 -33 -76 -3 -37 -12 -79 -20 -91 -20 -32 -72 -52 -130 -51
-68 1 -96 11 -110 39 -14 27 -30 28 -50 2 -10 -15 -12 -9 -13 38 0 174 160
281 309 205z m1512 8 c21 -21 -55 -35 -216 -40 -113 -3 -175 0 -209 9 -64 17
-70 35 -14 41 83 9 428 1 439 -10z m321 -18 c96 -64 131 -203 74 -290 -23 -35
-27 -31 -10 10 7 19 14 47 14 63 0 30 -43 105 -78 136 l-22 19 0 -60 c0 -72
-26 -119 -83 -146 -44 -22 -89 -12 -127 28 -47 50 -66 16 -34 -60 22 -55 9
-54 -25 1 -57 89 -41 193 42 272 67 65 175 76 249 27z m2776 20 c56 -24 110
-81 126 -132 10 -32 -11 -29 -53 7 -19 16 -38 27 -43 24 -4 -3 -8 -25 -8 -50
0 -92 -49 -152 -115 -141 -19 3 -55 22 -81 41 -47 36 -64 38 -64 7 0 -25 49
-118 65 -125 20 -7 19 -36 -2 -36 -55 0 -133 118 -133 199 1 84 61 171 144
207 42 18 119 17 164 -1z m4716 -52 c8 -38 22 -115 31 -173 24 -152 60 -350
100 -549 58 -290 102 -640 76 -616 -16 15 -41 147 -116 595 -36 217 -78 460
-94 540 -41 202 -43 215 -35 244 10 42 21 30 38 -41z m-8759 38 c10 -17 -63
-24 -235 -25 -163 -1 -207 4 -195 24 8 13 422 14 430 1z m1787 -9 c10 -10 9
-15 -3 -27 -12 -12 -39 -13 -189 -4 -166 10 -226 20 -190 33 52 18 363 17 382
-2z m763 -3 c116 -13 141 -19 123 -30 -15 -10 -294 -12 -351 -2 -41 6 -59 29
-36 44 14 10 108 5 264 -12z m5007 1 c47 -13 41 -37 -10 -47 -70 -13 -385 -9
-411 5 -64 37 67 64 269 56 63 -2 132 -9 152 -14z m1040 2 c10 -10 9 -15 -4
-28 -13 -13 -47 -17 -166 -22 -157 -5 -271 8 -293 34 -22 27 27 32 263 31 135
-2 190 -5 200 -15z m-2053 -12 c32 -8 32 -21 0 -38 -27 -14 -349 -12 -381 2
-25 11 -22 35 5 46 24 10 331 2 376 -10z m-2930 -10 c70 -10 82 -16 61 -31
-16 -11 -301 -4 -374 9 -63 11 -56 30 11 34 82 4 227 -2 302 -12z m999 8 c19
-19 14 -26 -25 -37 -42 -12 -313 -13 -353 -2 -30 8 -39 37 -13 44 10 3 99 5
199 6 128 1 183 -2 192 -11z m962 3 c34 -9 32 -32 -5 -51 -23 -11 -66 -15
-180 -15 -128 0 -155 3 -178 18 -15 9 -27 26 -27 37 0 19 7 20 183 19 100 -1
193 -4 207 -8z m-4689 -48 c27 -27 -57 -44 -228 -44 -101 -1 -129 2 -141 15
-20 20 -12 28 41 37 65 12 314 6 328 -8z m-1831 -2 c0 -17 -31 -21 -148 -21
-70 0 -112 4 -106 9 14 14 49 18 157 20 53 0 97 -3 97 -8z m902 -17 c24 -15
-30 -23 -162 -23 -167 0 -227 18 -110 33 49 6 258 -2 272 -10z m1743 8 c31 -6
41 -12 43 -30 3 -22 1 -23 -45 -18 -26 3 -84 8 -128 11 -92 7 -125 14 -125 25
0 17 181 25 255 12z m957 -28 c24 -15 -28 -23 -157 -23 -131 -1 -175 4 -175
20 0 4 17 10 38 12 53 7 280 0 294 -9z m992 -4 c76 -28 -12 -45 -203 -38 -121
5 -194 19 -178 34 23 23 324 26 381 4z m4859 14 c44 -8 47 -25 11 -53 -24 -19
-40 -21 -184 -21 -126 0 -160 3 -170 15 -19 23 -8 49 25 56 40 9 270 10 318 3z
m-3908 -34 c12 -10 13 -15 3 -28 -11 -12 -34 -14 -148 -9 -128 6 -219 21 -206
35 24 24 322 26 351 2z m1930 0 c29 -11 29 -12 11 -26 -15 -11 -56 -14 -175
-14 -86 0 -166 3 -179 6 -30 8 -25 36 8 46 37 11 300 2 335 -12z m1029 14 c9
-3 16 -12 16 -20 0 -25 -78 -35 -251 -32 -137 2 -172 6 -179 18 -20 32 7 37
227 39 94 0 178 -2 187 -5z m-2045 -14 c77 -11 96 -25 55 -40 -43 -17 -325
-26 -352 -11 -26 14 -28 36 -4 50 21 13 216 14 301 1z m-6476 -19 c22 -22 -12
-36 -101 -39 -72 -3 -90 -1 -102 13 -15 17 -7 30 25 38 34 10 165 1 178 -12z
m1654 8 c71 -7 139 -16 152 -21 23 -8 23 -10 7 -26 -22 -23 -221 -30 -281 -10
-41 14 -58 43 -33 59 16 11 5 11 155 -2z m8011 -61 c7 -35 44 -232 81 -438
105 -567 126 -736 96 -743 -21 -5 -46 114 -86 401 -22 163 -55 392 -74 507
-41 260 -50 335 -38 335 5 0 15 -28 21 -62z m-8766 36 c24 -15 -29 -23 -152
-23 -69 0 -132 3 -139 8 -15 10 -9 12 59 25 35 6 218 -2 232 -10z m1800 0 c23
-15 -28 -23 -142 -23 -148 0 -197 17 -95 33 41 6 223 -2 237 -10z m828 -13
c44 -7 43 -7 -34 -14 -109 -10 -204 -9 -210 2 -4 5 0 12 6 14 19 8 187 7 238
-2z m1026 -7 c54 -14 5 -24 -116 -24 -127 0 -160 4 -160 20 0 18 210 20 276 4z
m1033 -43 c9 -12 39 -50 66 -83 83 -100 80 -85 38 -167 -93 -181 -33 -349 147
-412 41 -14 45 -19 48 -50 12 -168 33 -401 38 -431 l7 -38 -304 1 c-167 1
-315 4 -329 8 -25 7 -25 9 -22 98 5 157 -32 233 -147 308 -104 66 -105 69
-109 321 l-3 212 60 42 c65 46 102 94 121 155 6 22 14 46 16 54 4 11 37 13
181 9 169 -4 177 -5 192 -27z m963 -5 c10 -4 20 -16 23 -26 11 -34 123 -129
168 -141 23 -7 48 -17 55 -24 15 -13 65 -366 66 -470 l1 -69 -55 -37 c-68 -45
-105 -99 -127 -183 -18 -66 -16 -78 23 -197 5 -14 -20 -17 -223 -23 -125 -3
-276 -9 -334 -13 l-107 -6 -6 89 c-4 49 -13 161 -20 249 -9 103 -11 166 -5
177 5 10 32 29 58 43 62 31 117 96 136 159 32 108 9 193 -76 281 -32 34 -59
65 -59 70 0 4 22 37 49 74 l49 66 184 -6 c100 -3 191 -9 200 -13z m911 15 c56
-6 70 -11 84 -32 9 -13 42 -51 74 -84 l56 -60 -33 -70 c-28 -58 -34 -81 -34
-137 0 -129 73 -250 160 -264 22 -4 44 -12 49 -18 14 -17 29 -104 51 -304 17
-144 18 -187 9 -198 -10 -13 -63 -14 -345 -12 -183 2 -335 6 -338 9 -4 3 4 28
16 55 63 143 -7 284 -183 366 l-67 31 -7 101 c-4 56 -13 166 -21 245 -15 157
-13 166 38 202 53 36 97 81 130 132 l30 47 132 -1 c72 0 161 -3 199 -8z m1120
-45 c34 -52 52 -67 161 -139 49 -32 49 -32 67 -117 9 -47 26 -130 37 -185 12
-55 24 -132 28 -171 l6 -72 -53 -35 c-69 -44 -93 -70 -120 -132 -26 -58 -30
-158 -10 -219 11 -32 11 -40 0 -47 -8 -5 -168 -9 -355 -9 l-342 0 -11 78 c-19
123 -33 353 -24 395 7 34 14 41 48 52 87 30 140 133 139 270 -1 101 -24 156
-93 223 -56 54 -61 70 -32 96 37 33 112 48 286 55 94 4 184 8 201 9 27 2 36
-5 67 -52z m931 -18 c42 -183 176 -984 176 -1050 0 -20 -4 -39 -8 -42 -17 -10
-457 -17 -472 -7 -12 8 -10 15 14 40 42 43 39 108 -7 206 -45 93 -107 159
-167 175 -25 7 -50 14 -57 16 -17 4 -30 83 -54 319 l-21 210 38 30 c51 41 127
116 139 138 15 28 64 35 241 36 l162 1 16 -72z m-6924 51 c88 -14 127 -35 150
-78 10 -20 28 -42 40 -49 19 -12 21 -19 16 -54 -4 -22 -15 -57 -25 -77 -29
-55 -40 -132 -29 -193 15 -84 56 -137 154 -202 69 -44 73 -61 73 -318 l1 -217
-242 5 c-281 6 -399 12 -417 23 -10 7 -8 19 9 57 62 141 17 273 -125 365 l-67
43 6 50 c3 28 8 96 11 151 6 98 21 213 31 247 3 10 22 22 43 28 53 14 125 81
157 146 30 61 34 65 84 75 51 10 59 10 130 -2z m-2547 -81 l42 -77 -42 -43
c-23 -24 -49 -63 -58 -87 -20 -58 -19 -166 2 -232 20 -62 88 -139 121 -139 27
0 27 2 2 -223 -25 -214 -36 -278 -53 -290 -12 -9 -420 0 -577 12 l-85 6 55 8
c56 8 89 21 79 32 -4 3 -43 10 -89 15 -79 9 -110 21 -110 43 0 6 27 8 78 4
132 -11 132 28 -2 48 -39 6 -71 15 -70 20 1 12 62 24 126 24 45 1 73 16 46 26
-7 3 -44 8 -83 12 -61 7 -70 11 -70 28 0 23 30 32 117 34 54 1 84 15 56 26 -8
3 -50 9 -93 13 -71 6 -80 9 -80 27 0 23 30 32 117 34 49 1 79 13 66 26 -2 2
-40 8 -83 12 l-80 8 0 30 0 30 90 -3 c154 -4 159 33 6 52 -49 6 -93 15 -97 19
-17 17 24 27 108 27 81 0 113 9 88 25 -6 4 -47 9 -92 12 -83 6 -103 18 -78 48
9 11 34 15 89 15 129 0 140 30 15 41 -41 3 -80 11 -86 17 -22 22 10 40 80 47
37 4 74 9 82 12 24 9 -27 21 -97 22 -61 1 -88 15 -62 32 8 5 52 9 99 9 83 0
124 10 101 24 -6 4 -45 11 -87 15 -46 6 -83 15 -92 25 -14 14 -13 16 12 26 15
5 51 10 79 10 50 0 88 13 76 25 -4 3 -39 12 -80 21 -134 28 -128 51 15 63 53
4 100 11 103 15 11 11 -17 24 -72 33 -41 6 -20 9 110 14 88 3 195 5 238 5 l79
-1 41 -77z m901 2 l39 -76 -32 -44 c-42 -58 -65 -139 -58 -202 9 -77 40 -131
112 -201 l67 -64 -17 -209 c-9 -115 -20 -229 -23 -254 l-7 -45 -368 -3 c-397
-2 -443 2 -453 42 -7 30 43 369 61 413 11 27 27 39 78 62 122 55 187 150 187
276 0 56 -5 79 -25 114 -14 23 -25 52 -25 63 0 11 20 45 44 76 24 32 51 71 60
89 19 38 30 41 196 39 l125 -1 39 -75z m911 41 c3 -22 18 -57 32 -78 23 -36
41 -51 115 -96 38 -23 53 -121 44 -295 -10 -196 -6 -187 -92 -228 -155 -74
-208 -206 -150 -377 l23 -68 -329 3 c-270 2 -330 6 -337 17 -5 8 -7 37 -5 65
2 28 9 119 15 201 6 83 14 165 17 184 8 37 8 36 96 78 101 47 166 145 166 250
0 41 -17 101 -54 185 l-16 37 40 46 c22 25 40 49 40 53 1 19 32 45 62 52 18 4
99 8 180 9 l146 1 7 -39z m1827 -23 c36 -52 55 -69 108 -95 35 -18 67 -38 70
-45 4 -7 13 -124 20 -260 13 -257 11 -278 -27 -278 -7 0 -36 -21 -64 -47 -102
-95 -163 -290 -110 -347 l22 -24 -68 -6 c-37 -3 -144 -8 -238 -11 -93 -3 -205
-8 -247 -11 l-78 -6 0 253 0 254 55 29 c106 55 165 151 165 268 0 68 -16 111
-65 178 -39 54 -41 62 -19 81 9 7 29 39 45 71 l29 58 179 0 180 0 43 -62z
m969 17 c28 -63 67 -104 150 -161 47 -31 76 -59 84 -79 7 -16 15 -85 19 -153
3 -67 11 -154 17 -193 6 -39 8 -80 5 -93 -3 -12 -26 -35 -51 -50 -110 -70
-151 -149 -142 -278 3 -46 8 -93 12 -105 l7 -23 -286 0 c-157 0 -286 2 -286 4
0 2 12 29 26 61 49 106 18 238 -75 314 -88 72 -99 87 -119 153 -56 181 -55
430 2 460 11 6 59 48 106 94 l85 83 70 4 c39 1 134 4 213 5 l143 2 20 -45z
m5044 -569 c47 -279 67 -452 51 -435 -7 7 -125 681 -141 802 -43 323 10 108
90 -367z m-1932 517 c-7 -2 -19 -2 -25 0 -7 3 -2 5 12 5 14 0 19 -2 13 -5z
m-6507 -82 c49 -22 88 -70 115 -141 29 -76 24 -79 -34 -17 -39 42 -60 57 -79
57 -37 0 -40 -11 -22 -61 44 -125 -58 -195 -174 -120 -65 42 -76 41 -68 -6 6
-35 5 -37 -9 -19 -22 29 -20 149 5 204 48 106 162 150 266 103z m4787 -18 c17
-11 45 -38 61 -60 24 -35 30 -55 34 -117 5 -79 -2 -126 -18 -126 -6 0 -10 31
-10 70 0 51 -6 82 -20 109 -36 72 -70 55 -70 -34 0 -26 -7 -61 -15 -79 -23
-48 -50 -60 -132 -58 -80 2 -91 -8 -50 -46 46 -43 141 -56 210 -27 43 18 59 3
22 -21 -38 -25 -145 -30 -199 -10 -53 20 -111 77 -127 123 -19 58 -7 155 24
199 29 42 79 80 123 94 42 14 130 4 167 -17z m1943 8 c65 -29 114 -110 114
-185 0 -63 -21 -110 -69 -157 -168 -163 -417 -2 -346 224 9 29 27 66 39 81 41
52 185 72 262 37z m-4912 -1 c40 -15 107 -81 127 -125 40 -86 19 -194 -50
-259 -42 -40 -51 -25 -12 19 17 19 33 48 37 63 3 15 7 32 9 38 2 6 -1 31 -6
56 -13 60 -50 94 -95 89 -7 -1 -9 -20 -6 -55 4 -48 1 -56 -26 -87 -26 -30 -37
-34 -77 -34 -42 0 -51 4 -80 38 -33 37 -49 45 -60 27 -11 -18 15 -89 50 -135
32 -41 33 -45 14 -45 -11 0 -30 11 -43 25 -63 68 -61 234 4 325 40 56 146 86
214 60z m-2739 -19 c49 -22 99 -77 115 -127 17 -50 6 -126 -25 -180 -27 -46
-55 -73 -40 -38 31 71 45 130 40 156 -9 38 -61 98 -86 98 -21 0 -21 -2 -19
-76 1 -42 -3 -54 -26 -77 -40 -40 -94 -37 -162 10 -93 64 -95 -2 -2 -112 27
-32 47 -61 45 -64 -10 -10 -100 78 -122 119 -55 104 -9 237 102 294 41 21 130
20 180 -3z m6532 -58 c-3 -10 -5 -4 -5 12 0 17 2 24 5 18 2 -7 2 -21 0 -30z
m2013 -8 c0 -8 -4 -15 -10 -15 -5 0 -10 7 -10 15 0 8 5 15 10 15 6 0 10 -7 10
-15z m-1980 -86 c0 -12 -29 -24 -37 -16 -3 4 -3 13 0 21 6 16 37 11 37 -5z
m2000 -3 c0 -8 -7 -19 -15 -26 -12 -10 -16 -9 -21 4 -7 18 13 49 27 40 5 -3 9
-11 9 -18z m18 -117 c-4 -33 -38 -39 -38 -7 0 28 20 52 33 39 5 -5 7 -19 5
-32z m-2013 6 c0 -10 -6 -20 -12 -22 -8 -3 -13 5 -13 22 0 17 5 25 13 23 6 -3
12 -13 12 -23z m-4795 1 c0 -8 -4 -18 -10 -21 -5 -3 -10 3 -10 14 0 12 5 21
10 21 6 0 10 -6 10 -14z m6828 -125 c-2 -15 -9 -26 -18 -26 -16 0 -25 37 -16
62 10 25 38 -5 34 -36z m-6828 -5 c0 -7 -6 -19 -14 -25 -19 -16 -32 5 -16 24
16 19 30 19 30 1z m918 -13 c-10 -2 -28 -2 -40 0 -13 2 -5 4 17 4 22 1 32 -1
23 -4z m3912 -42 c0 -4 -6 -16 -14 -27 -14 -18 -15 -18 -21 -1 -10 24 1 48 20
41 8 -3 15 -9 15 -13z m-6748 -53 c-15 -15 -26 -4 -18 18 5 13 9 15 18 6 9 -9
9 -15 0 -24z m8748 11 c0 -11 -4 -17 -10 -14 -5 3 -10 13 -10 21 0 8 5 14 10
14 6 0 10 -9 10 -21z m-1000 5 c0 -12 -42 -64 -51 -64 -12 0 -12 27 1 51 10
17 50 28 50 13z m-6790 -21 c-1 -11 -26 -43 -33 -43 -4 0 -1 11 5 25 10 23 28
35 28 18z m1880 -48 c0 -8 -7 -15 -15 -15 -16 0 -20 12 -8 23 11 12 23 8 23
-8z m-860 -41 c74 -31 120 -98 120 -173 0 -38 -32 -131 -46 -131 -3 0 -3 27 1
60 6 53 4 65 -18 102 -14 24 -37 54 -52 68 l-27 25 7 -56 c14 -111 -34 -189
-117 -189 -34 0 -46 6 -74 36 -19 19 -34 41 -34 48 0 7 -9 21 -19 30 -19 17
-20 17 -30 -3 -7 -12 -9 -44 -5 -78 5 -52 4 -56 -9 -40 -19 23 -31 106 -22
149 11 51 51 114 88 137 68 42 158 47 237 15z m4878 -1 c18 -9 50 -35 71 -59
64 -73 78 -172 32 -231 -24 -29 -26 -18 -10 38 10 32 9 46 -6 85 -19 51 -27
47 -39 -18 -11 -58 -95 -118 -166 -118 -38 1 -100 40 -117 75 -23 49 -38 38
-38 -28 1 -61 -3 -67 -28 -39 -69 76 26 259 160 308 42 15 90 11 141 -13z
m2036 -3 c68 -34 106 -89 106 -151 0 -26 -5 -60 -12 -76 -11 -27 -11 -27 -19
25 -8 57 -31 102 -54 102 -14 0 -18 -11 -30 -81 -5 -35 -39 -76 -82 -98 -32
-16 -83 -13 -132 9 -56 26 -75 26 -67 0 3 -11 9 -29 12 -40 5 -14 2 -20 -10
-20 -25 0 -46 61 -46 135 0 104 36 169 115 207 56 26 153 21 219 -12z m-5011
-17 c44 -31 84 -97 94 -156 8 -52 -11 -47 -33 8 -9 25 -20 45 -24 45 -4 0 -11
-16 -14 -35 -20 -105 -58 -141 -142 -132 -68 7 -122 39 -141 85 -14 33 -15 33
-33 17 -11 -10 -22 -26 -25 -36 -4 -11 -11 -19 -17 -19 -16 0 -1 95 22 139 58
114 212 155 313 84z m3842 12 c0 -28 -29 -25 -33 3 -3 19 0 23 15 20 10 -2 18
-12 18 -23z m-2817 1 c72 -38 112 -113 111 -208 -1 -58 -2 -60 -10 -28 -19 72
-41 121 -53 117 -6 -2 -13 -29 -16 -60 -6 -65 -33 -101 -91 -118 -51 -16 -99
-5 -159 36 l-50 34 5 -72 5 -72 -25 50 c-66 134 -27 259 99 316 49 22 146 25
184 5z m-4888 -6 c0 -20 -29 -68 -45 -73 -21 -9 -19 9 6 49 20 33 39 44 39 24z
m2840 -4 c0 -17 -50 -79 -58 -72 -5 6 44 86 53 86 3 0 5 -6 5 -14z m-1920 -19
c0 -14 -20 -37 -32 -37 -12 0 -10 24 4 38 16 16 28 15 28 -1z m6806 -61 c7
-18 -14 -58 -27 -51 -10 7 -12 48 -2 58 11 11 23 8 29 -7z m-6815 -69 c-6 -15
-15 -27 -21 -27 -14 0 -13 15 7 58 14 30 17 33 20 16 2 -11 -1 -32 -6 -47z
m-945 -6 c-9 -17 -21 -31 -26 -31 -15 0 -12 33 6 59 24 34 40 12 20 -28z
m2864 25 c0 -17 -49 -77 -50 -61 0 12 37 75 45 75 3 0 5 -6 5 -14z m4900 -67
c0 -20 -15 -26 -25 -9 -9 15 3 43 15 35 5 -3 10 -15 10 -26z m-1973 -56 c-3
-10 -5 -4 -5 12 0 17 2 24 5 18 2 -7 2 -21 0 -30z m-5793 19 c8 -13 -33 -89
-51 -96 -10 -4 -13 -2 -10 6 40 101 47 112 61 90z m940 -36 c-17 -50 -44 -81
-44 -51 0 20 40 95 51 95 4 0 1 -20 -7 -44z m1936 39 c0 -11 -43 -96 -51 -101
-13 -8 -11 51 3 81 6 14 19 25 30 25 10 0 18 -2 18 -5z m4907 -51 c8 -21 -13
-42 -28 -27 -13 13 -5 43 11 43 6 0 13 -7 17 -16z m2181 -128 c31 -12 28 -20
-17 -41 -37 -16 -116 -18 -1118 -24 -3827 -24 -9518 -21 -9861 5 -39 3 -72 9
-72 14 0 37 265 42 2375 49 2737 10 8665 8 8693 -3z m111 -108 c6 -35 27 -169
46 -299 19 -131 52 -347 74 -480 22 -134 68 -440 101 -679 144 -1030 274
-1917 324 -2215 29 -170 131 -868 161 -1103 13 -96 -19 -130 -141 -152 -144
-25 -1643 -32 -6469 -26 -2690 3 -5141 9 -5449 15 -495 8 -560 11 -575 26 -13
13 -16 38 -15 138 2 135 28 351 139 1154 41 296 112 815 159 1153 47 338 101
744 121 901 19 157 54 409 76 560 22 151 62 435 89 631 27 196 54 366 60 377
10 20 12 20 42 5 l31 -16 -6 -162 c-8 -217 -43 -506 -167 -1396 -60 -434 -81
-589 -125 -950 -13 -113 -56 -432 -94 -710 -39 -278 -86 -626 -105 -775 -20
-148 -49 -366 -66 -484 -16 -118 -30 -243 -30 -278 l0 -63 5553 1 c5497 0
6742 5 6802 29 67 26 66 13 24 297 -21 142 -74 514 -119 828 -112 800 -284
1981 -314 2165 -39 241 -175 1230 -201 1461 -5 47 -3 59 15 82 33 42 46 34 59
-35z m-524 -57 c55 -14 -920 -24 -1666 -17 -772 7 -1890 -3 -1584 -15 88 -4
729 -7 1425 -8 1446 -3 2054 -11 2072 -29 33 -33 -29 -35 -1382 -38 -2342 -6
-4397 -21 -4417 -33 -13 -7 56 -11 252 -12 291 -1 376 -7 383 -26 9 -28 -51
-37 -228 -36 -229 1 -360 21 -457 69 -60 29 -83 35 -137 35 -142 0 -267 -106
-283 -240 -8 -73 17 -133 85 -198 l55 -52 -31 -48 c-42 -65 -56 -129 -49 -219
6 -86 42 -174 81 -199 l26 -17 -47 -52 c-68 -75 -97 -144 -90 -215 8 -93 74
-200 150 -245 l38 -23 -62 -63 c-77 -79 -103 -134 -104 -220 0 -54 6 -75 30
-119 30 -54 82 -101 140 -125 17 -7 38 -22 47 -32 36 -41 39 -74 59 -824 5
-212 16 -484 24 -605 8 -121 15 -300 15 -397 l0 -178 -57 -29 c-109 -55 -162
-138 -163 -250 0 -85 14 -127 66 -197 l44 -59 -237 -8 c-254 -8 -522 -2 -537
13 -5 5 2 22 17 40 15 17 29 46 33 66 15 81 -25 221 -82 284 -19 21 -34 43
-34 49 0 6 21 37 46 68 61 75 84 126 84 191 0 61 -14 99 -64 173 l-35 52 31
36 c136 155 87 392 -94 451 l-53 17 1 94 c1 52 5 524 9 1049 l7 955 79 76 c85
81 129 157 129 220 0 56 -28 125 -74 176 -74 85 -72 79 -36 109 17 15 49 53
72 86 53 78 76 88 225 89 65 1 132 5 148 9 30 7 30 7 5 13 -14 3 -89 9 -168
12 -150 6 -175 10 -169 29 2 7 65 15 173 22 93 6 170 12 172 13 1 0 2 6 2 12
0 7 -48 8 -152 5 -160 -7 -223 3 -223 34 0 22 42 28 222 29 89 0 168 4 177 7
44 17 -15 24 -204 24 -205 0 -266 8 -258 33 4 9 74 14 271 21 147 5 267 12
267 16 0 10 -497 20 -969 20 -218 0 -715 5 -1104 10 -663 10 -710 10 -737 -7
-27 -16 -30 -16 -48 0 -22 20 -96 23 -139 6 -32 -13 -28 -15 50 -24 40 -4 57
-11 57 -21 0 -8 -1 -14 -3 -14 -2 0 -28 -4 -58 -10 -97 -18 -282 -29 -334 -20
-27 5 -71 12 -97 15 -27 4 -48 10 -48 15 0 16 72 29 200 37 215 12 81 21 -502
33 -533 10 -628 15 -628 30 0 5 21 11 48 14 97 11 1639 25 3107 27 836 1 1583
5 1660 8 77 4 -944 8 -2270 9 -2234 2 -2645 5 -2629 21 3 3 216 8 472 11 730
8 9953 -1 9987 -9z m-578 -166 c78 -47 134 -132 132 -205 0 -16 -8 -3 -24 39
-40 109 -77 118 -90 22 -13 -93 -81 -171 -150 -171 -18 0 -52 7 -75 15 -23 8
-46 15 -51 15 -18 0 -8 -39 17 -70 35 -41 23 -51 -15 -13 -96 96 -41 322 94
385 49 23 103 17 162 -17z m-313 6 c23 -9 27 -14 17 -24 -9 -9 -126 -14 -439
-19 -235 -4 -553 -10 -707 -13 -283 -7 -442 2 -487 26 -23 12 -23 13 11 21 96
26 1543 33 1605 9z m-8966 3 c29 -8 28 -18 -5 -34 -33 -16 -271 -26 -366 -16
-98 11 -116 32 -40 46 47 9 379 12 411 4z m1254 -30 c73 -47 113 -161 90 -259
l-9 -40 -7 40 c-22 121 -29 146 -46 167 -17 20 -21 21 -30 8 -5 -8 -10 -33
-10 -55 0 -85 -33 -145 -88 -158 -34 -8 -92 12 -123 43 -26 25 -28 32 -22 79
5 42 3 51 -10 51 -23 0 -40 -64 -34 -131 3 -33 3 -59 1 -59 -2 0 -13 15 -24
33 -40 64 -22 152 46 227 80 89 180 109 266 54z m1649 19 c21 -21 -28 -34
-169 -45 -171 -12 -491 4 -552 28 -37 15 -43 15 -76 -1 -105 -50 -764 -37
-764 15 0 5 10 11 23 13 12 2 360 4 774 3 555 -1 755 -4 764 -13z m7170 0 c8
-8 5 -14 -12 -24 -32 -18 -396 -25 -537 -11 -100 10 -138 24 -126 44 9 14 660
6 675 -9z m-9766 -27 c45 -20 115 -84 115 -104 0 -5 -6 -16 -13 -27 -13 -17
-15 -17 -33 3 -10 11 -27 32 -37 46 -10 14 -26 26 -36 26 -16 0 -18 -8 -17
-67 2 -102 -42 -154 -114 -138 -44 10 -78 42 -90 86 -12 42 -33 51 -50 20 -38
-73 33 -167 147 -192 40 -9 62 -9 90 -1 46 14 51 10 16 -14 -15 -10 -50 -20
-78 -22 -41 -3 -60 2 -105 25 -44 23 -60 39 -83 83 -25 47 -28 64 -25 116 5
75 39 134 95 163 55 29 153 28 218 -3z m2915 -11 c66 -46 94 -95 98 -176 4
-59 1 -74 -21 -111 -14 -24 -34 -51 -45 -61 -18 -16 -17 -13 5 30 21 41 24 59
21 125 -2 58 -8 82 -21 95 -15 16 -19 16 -27 3 -5 -8 -10 -28 -10 -43 0 -73
-62 -137 -130 -137 -60 0 -131 58 -116 96 3 8 -1 14 -8 14 -46 0 -53 -100 -12
-159 14 -20 26 -41 26 -46 0 -18 -44 33 -67 79 -55 108 -15 252 85 306 58 32
165 24 222 -15z m1969 25 c112 -32 190 -162 162 -268 -17 -62 -72 -119 -134
-137 -102 -30 -187 -15 -240 44 -139 153 16 417 212 361z m766 1 c10 -17 -14
-22 -166 -32 -98 -7 -198 -7 -289 0 -143 10 -173 16 -149 32 19 12 596 11 604
0z m985 -1 c33 -20 -47 -33 -245 -38 -233 -5 -377 10 -360 39 8 12 585 12 605
-1z m298 -6 c116 -48 190 -221 135 -315 -24 -40 -35 -36 -26 9 21 100 5 157
-60 206 -35 26 -45 14 -24 -29 23 -48 22 -110 -3 -145 -37 -53 -104 -62 -195
-27 -52 20 -63 9 -40 -43 10 -22 16 -42 13 -45 -10 -11 -74 42 -91 75 -38 73
0 199 80 270 66 58 140 74 211 44z m-3037 -11 c38 -23 44 -44 21 -84 -11 -19
-25 -56 -32 -82 -16 -58 -40 -77 -101 -77 -62 0 -103 31 -95 71 7 38 -17 58
-43 35 -25 -23 -34 -1 -16 40 38 89 187 144 266 97z m6074 -98 c9 -55 27 -165
40 -245 13 -80 52 -341 85 -580 34 -239 74 -502 90 -585 41 -206 110 -710 133
-957 5 -64 -10 -42 -17 25 -33 292 -158 1069 -164 1016 -5 -43 133 -1034 178
-1284 11 -60 36 -209 55 -330 19 -121 63 -402 99 -625 35 -223 74 -472 85
-555 12 -82 23 -160 25 -172 2 -13 0 -23 -4 -23 -16 0 -63 273 -151 870 -16
113 -45 301 -65 418 -80 495 -197 1273 -244 1622 -11 85 -32 218 -45 295 -13
77 -40 253 -59 390 -48 339 -49 344 -36 323 6 -10 22 -86 35 -170 14 -84 43
-265 65 -402 37 -226 50 -291 50 -242 0 29 -67 494 -131 905 -62 403 -65 431
-49 415 5 -5 17 -54 25 -109z m-4010 86 c52 -24 85 -60 95 -105 10 -45 -2 -46
-29 -3 -24 39 -59 73 -67 65 -3 -3 -9 -44 -14 -91 -5 -47 -16 -96 -24 -110
-36 -53 -122 -63 -193 -21 -41 24 -46 24 -62 10 -23 -21 -31 -11 -31 33 1 55
16 108 41 146 57 83 191 119 284 76z m2608 -48 c50 -6 61 -17 25 -26 -13 -3
-122 -8 -243 -12 -121 -3 -263 -8 -316 -11 -85 -4 -99 -2 -120 15 -13 11 -20
23 -16 27 20 20 521 26 670 7z m-8974 1 c35 -7 40 -18 14 -29 -28 -12 -266
-17 -282 -7 -8 6 -11 17 -8 26 5 13 25 16 125 16 66 0 134 -3 151 -6z m969 -6
c8 -8 9 -15 1 -25 -9 -10 -52 -13 -178 -13 -153 0 -221 9 -181 24 65 24 337
35 358 14z m1220 -3 c12 -4 22 -11 22 -15 0 -16 -73 -20 -375 -20 -258 0 -315
2 -324 14 -27 33 15 37 339 32 173 -2 325 -7 338 -11z m2737 7 c34 -6 40 -11
40 -32 l0 -25 -160 3 c-249 5 -377 26 -333 53 16 10 397 11 453 1z m1072 -8
c2 -6 -6 -15 -19 -19 -31 -9 -433 -19 -454 -11 -29 11 1 30 59 37 89 11 410 5
414 -7z m987 7 c86 -18 -15 -49 -189 -57 -182 -9 -315 16 -291 55 8 12 426 14
480 2z m1191 -5 c18 -13 18 -14 -3 -25 -33 -17 -626 -11 -644 7 -27 27 20 32
323 32 243 0 309 -3 324 -14z m1924 5 c8 -5 9 -11 3 -14 -43 -27 -520 -38
-541 -13 -25 30 19 35 274 36 138 0 256 -4 264 -9z m155 -8 c4 -16 35 -183 50
-273 3 -19 46 -318 96 -663 122 -850 246 -1652 370 -2397 79 -474 149 -984
136 -997 -18 -19 -54 150 -96 447 -78 563 -134 954 -170 1180 -21 135 -55 353
-75 485 -61 409 -115 754 -140 907 -76 448 -179 1136 -189 1261 -5 62 6 91 18
50z m-7317 -9 c7 -20 -38 -24 -324 -24 -336 0 -383 12 -128 33 101 9 449 2
452 -9z m1794 -69 c102 -4 192 -11 199 -15 7 -4 10 -15 7 -24 -5 -14 -28 -16
-150 -16 -152 0 -247 12 -285 36 -29 19 -19 37 16 30 15 -3 111 -8 213 -11z
m5325 -7 c4 -5 4 -11 0 -15 -10 -10 -409 -16 -455 -8 -40 8 -30 22 19 28 57 7
428 3 436 -5z m-10047 -12 c16 -19 3 -26 -62 -33 -62 -6 -137 11 -137 32 0 21
182 22 199 1z m929 7 c53 -14 -9 -23 -155 -23 -155 0 -197 5 -171 21 15 10
291 12 326 2z m1216 1 c25 -4 46 -10 46 -15 0 -19 -119 -29 -365 -29 -249 0
-315 6 -315 29 0 5 12 12 28 14 45 7 556 7 606 1z m744 0 c14 -4 22 -13 20
-23 -3 -14 -31 -16 -263 -16 -256 0 -375 8 -375 25 0 5 15 11 33 13 54 6 560
7 585 1z m3044 -11 c54 -16 33 -28 -62 -35 -123 -8 -315 1 -337 17 -10 7 -13
17 -8 25 6 10 48 11 194 7 102 -3 198 -9 213 -14z m1002 11 c29 -11 16 -22
-39 -34 -75 -16 -349 -10 -367 8 -10 10 -10 15 2 22 16 11 378 14 404 4z
m1230 -7 c18 -13 18 -14 0 -21 -34 -13 -357 -25 -480 -17 -115 8 -179 23 -144
35 37 12 71 14 331 15 216 1 279 -2 293 -12z m816 3 c41 -26 -13 -30 -340 -28
-243 2 -334 6 -337 15 -2 6 4 13 14 16 35 9 648 7 663 -3z m-8470 -15 c0 -14
-32 -66 -37 -61 -8 7 17 66 28 66 5 0 9 -2 9 -5z m1673 -52 c8 -17 -45 -1022
-68 -1293 -8 -91 -17 -237 -20 -325 -8 -228 -5 -216 -75 -261 -96 -61 -150
-154 -150 -259 0 -69 15 -109 62 -172 l39 -52 -55 -67 c-101 -123 -110 -194
-39 -331 l47 -92 -42 -39 c-56 -52 -82 -111 -82 -190 0 -74 16 -117 70 -187
l40 -51 -63 -65 c-69 -71 -87 -112 -87 -200 0 -70 33 -140 94 -199 25 -24 46
-47 46 -50 0 -3 -15 -14 -32 -24 -54 -31 -79 -58 -104 -111 -44 -94 -28 -210
42 -302 l25 -33 -153 0 c-217 0 -535 18 -559 31 l-21 11 21 22 c17 18 21 35
21 82 0 104 -46 249 -85 271 -12 7 -4 21 39 70 64 73 80 115 80 203 0 53 -6
75 -29 119 -17 30 -45 66 -64 80 -19 14 -48 39 -64 54 l-30 28 6 97 c8 127 84
912 148 1522 56 538 47 503 132 535 56 20 105 65 133 121 14 29 19 60 19 119
-1 89 -18 133 -83 214 l-35 43 50 47 c74 68 98 119 97 211 0 82 -13 115 -71
187 l-34 41 47 39 c26 21 62 62 81 91 18 28 35 53 36 54 1 1 128 4 282 8 154
3 303 7 332 8 28 1 54 -1 56 -5z m6026 -98 c7 -49 26 -186 42 -303 15 -117 40
-317 54 -445 40 -368 84 -731 106 -871 23 -157 23 -146 -2 -146 -32 0 -85 -36
-108 -74 -37 -59 -52 -118 -52 -203 -1 -91 18 -147 71 -211 37 -44 37 -48 4
-56 -35 -9 -55 -63 -55 -148 0 -124 41 -220 113 -267 l36 -23 -32 -47 c-43
-60 -56 -101 -56 -175 1 -79 26 -136 93 -204 l52 -53 -17 -27 c-64 -102 -63
-100 -63 -229 0 -107 2 -125 21 -149 11 -15 33 -31 48 -35 66 -18 72 -53 21
-117 -52 -67 -68 -119 -63 -206 4 -63 11 -84 40 -134 l35 -59 -195 -6 c-276
-10 -364 -9 -401 4 -29 10 -32 15 -26 38 22 92 25 122 20 170 -13 109 -51 179
-116 212 l-40 20 50 45 c67 60 95 121 95 204 -1 80 -18 121 -77 188 -68 77
-72 87 -48 125 80 123 84 229 14 340 -27 44 -92 93 -134 102 -16 4 -36 17 -44
29 -18 27 -53 323 -95 796 -43 483 -76 823 -103 1048 l-23 194 56 38 c113 77
161 152 163 256 1 79 -27 137 -104 212 l-60 58 45 66 c24 37 49 83 56 102 l11
36 322 2 c177 2 325 1 328 -2 3 -3 12 -45 18 -95z m811 46 c12 -27 47 -73 76
-102 30 -29 54 -62 54 -72 0 -10 -9 -35 -19 -55 -43 -84 -44 -189 -4 -267 26
-50 50 -72 120 -110 31 -16 55 -34 55 -38 -1 -4 -20 -22 -44 -40 -63 -48 -93
-114 -91 -201 1 -120 59 -213 168 -275 29 -17 56 -34 59 -39 3 -5 19 -101 35
-213 17 -112 41 -276 55 -364 14 -88 41 -293 61 -455 83 -673 96 -780 112
-874 l16 -99 -46 -44 c-101 -95 -134 -174 -124 -297 10 -114 74 -206 143 -206
13 0 24 -3 24 -8 0 -4 -19 -30 -41 -57 -58 -70 -79 -119 -79 -190 0 -63 24
-116 85 -191 l26 -32 -77 -7 c-85 -8 -634 4 -634 14 0 3 10 31 22 61 16 40 22
78 22 140 1 76 -2 90 -27 132 -15 26 -52 68 -81 94 l-54 46 41 36 c56 51 78
107 78 194 0 101 -22 156 -92 233 -32 36 -59 68 -59 71 0 3 14 23 30 44 59 75
76 179 44 272 -8 26 -38 72 -65 103 l-50 57 18 27 c38 57 53 97 53 143 0 71
-34 150 -92 213 l-51 56 20 27 c48 66 66 115 67 187 0 121 -57 211 -169 264
-84 40 -84 40 -125 421 -12 107 -34 285 -50 395 -16 110 -41 313 -55 450 -14
138 -32 306 -40 375 -9 69 -18 150 -21 180 l-6 55 344 -3 345 -3 23 -48z
m-8990 3 c11 -26 48 -73 85 -110 62 -62 65 -67 65 -113 0 -27 -31 -298 -69
-602 -67 -527 -91 -735 -142 -1214 -16 -151 -27 -215 -38 -229 -9 -10 -41 -31
-72 -46 -178 -90 -212 -293 -77 -462 27 -35 29 -41 15 -49 -40 -23 -78 -64
-101 -111 -21 -42 -26 -66 -26 -129 0 -71 3 -85 40 -156 40 -77 44 -103 15
-103 -27 0 -92 -69 -116 -123 -35 -79 -33 -203 4 -274 15 -29 27 -59 27 -67 0
-8 -15 -26 -33 -40 -19 -14 -47 -50 -63 -78 -26 -48 -29 -62 -29 -143 0 -74 4
-98 23 -133 12 -23 22 -44 22 -46 0 -2 -138 -7 -307 -11 -224 -5 -316 -4 -338
5 -53 20 -9 31 96 24 69 -4 99 -3 104 6 12 19 -2 24 -100 30 -142 9 -147 29
-10 40 132 11 132 29 0 40 -83 7 -105 13 -92 26 4 4 49 10 101 13 52 3 98 10
102 14 16 16 -18 30 -91 37 -41 4 -79 10 -82 14 -14 14 12 20 90 22 45 1 88 2
95 3 7 0 12 17 12 43 0 39 -1 40 -18 25 -13 -12 -37 -17 -80 -17 -80 0 -114
15 -110 49 l3 26 124 -4 c102 -3 123 -1 119 10 -3 10 -33 15 -110 19 -59 3
-110 9 -115 13 -13 14 26 36 76 42 110 14 119 23 24 24 -90 1 -117 11 -95 33
6 6 54 16 106 23 53 6 99 15 103 18 14 14 -11 22 -80 25 -99 4 -117 9 -117 31
0 24 26 31 115 31 81 0 117 8 112 24 -2 7 -42 13 -103 16 -79 4 -99 8 -99 20
0 12 20 16 97 20 90 5 119 12 106 26 -3 3 -47 11 -97 18 -134 18 -138 32 -14
48 127 15 143 18 143 27 0 14 -40 21 -120 21 -83 0 -104 8 -98 36 3 17 15 20
101 24 140 7 129 36 -15 39 -51 1 -79 13 -65 28 3 2 49 8 102 13 53 5 99 11
103 14 15 16 -21 25 -108 28 -94 3 -95 3 -95 28 0 25 1 25 99 30 64 3 101 9
103 17 6 18 -31 33 -101 40 -67 6 -96 16 -83 30 4 4 55 10 112 13 57 3 107 9
111 13 20 19 -22 30 -113 31 -90 1 -98 3 -101 21 -5 42 12 50 123 56 58 3 108
9 112 12 14 14 -11 21 -105 28 -53 4 -98 8 -99 8 -2 1 -3 10 -3 21 0 24 17 28
127 32 45 2 85 7 89 11 17 16 -16 28 -105 36 -51 5 -97 13 -103 19 -23 23 5
32 102 32 54 0 101 4 105 9 7 12 -13 18 -104 31 -73 10 -111 29 -111 56 0 17
23 22 135 27 152 8 168 31 27 42 -119 8 -132 12 -132 35 0 23 3 23 122 24 47
1 90 4 94 9 14 14 -12 28 -77 38 -101 17 -101 23 -1 29 94 5 117 16 105 47 -4
11 -24 13 -98 7 -100 -7 -135 2 -135 36 0 24 15 27 133 33 49 3 91 8 95 11 14
15 -26 26 -93 26 -88 0 -115 7 -115 30 0 24 19 30 103 30 93 0 147 9 147 25 0
18 -33 25 -120 26 -41 0 -84 4 -95 9 -19 7 -18 8 5 13 14 3 65 8 113 10 49 3
91 8 95 11 14 15 -27 26 -100 26 -84 0 -128 12 -128 34 0 20 22 26 108 27 90
2 134 10 139 26 5 15 -16 21 -120 32 -48 5 -91 11 -94 15 -14 14 14 21 108 27
56 4 103 10 107 14 14 13 -23 23 -109 27 -142 9 -137 25 12 45 98 12 135 26
123 44 -3 5 -54 9 -114 9 -69 0 -111 4 -116 11 -12 20 15 26 127 31 61 3 113
8 116 12 14 14 -13 21 -100 27 -96 6 -137 15 -137 29 0 14 32 21 134 30 54 5
103 13 109 19 15 15 -4 19 -106 24 -89 4 -114 14 -104 41 5 13 25 16 104 16
54 0 104 4 112 9 28 18 -2 28 -96 33 -100 6 -133 13 -133 29 0 16 46 28 146
38 92 10 127 22 110 38 -4 5 -52 11 -107 14 -100 6 -134 18 -112 40 6 6 61 14
121 18 61 3 113 9 117 13 18 17 -13 26 -115 30 -106 5 -131 10 -117 24 3 3 56
12 118 20 108 13 150 27 118 39 -8 2 -61 6 -119 7 l-105 3 0 30 0 30 119 7
c65 4 121 10 124 13 14 14 -25 23 -125 28 -58 3 -110 10 -115 15 -14 14 12 19
136 26 55 3 104 10 109 15 18 18 -38 35 -123 36 -109 2 -110 2 -110 20 0 26
37 35 145 35 81 0 106 3 103 13 -6 16 -80 35 -140 36 -50 1 -98 15 -98 29 0 5
48 12 106 15 103 7 157 20 124 30 -8 3 -56 8 -106 11 -95 6 -124 12 -124 27 0
16 39 29 112 35 152 13 198 44 65 44 -83 0 -147 15 -147 34 0 17 53 26 163 26
82 0 109 9 70 25 -10 4 -62 9 -116 12 -92 6 -98 7 -95 27 3 19 12 22 102 28
55 4 106 10 113 12 33 13 -3 23 -98 30 -56 3 -105 9 -110 12 -21 13 6 23 79
29 101 8 134 13 152 25 28 19 -11 30 -105 30 -49 0 -96 4 -104 9 -26 16 0 31
57 32 83 1 157 13 157 24 0 6 -46 13 -104 17 -160 12 -159 40 0 53 146 11 149
38 7 49 -88 7 -129 19 -97 30 8 3 53 8 101 11 86 7 118 21 103 45 -5 8 -38 10
-111 5 l-104 -7 0 25 c0 32 30 44 133 51 43 3 83 8 88 12 22 13 -7 22 -102 29
-57 4 -97 11 -93 15 11 11 101 15 367 18 l208 2 19 -46z m968 -44 l51 -90 -43
-50 c-65 -76 -88 -178 -66 -285 16 -77 34 -112 70 -134 l29 -17 -49 -47 c-71
-67 -94 -116 -95 -202 0 -90 26 -144 112 -236 l64 -68 -20 -238 c-11 -131 -30
-357 -41 -503 -11 -146 -27 -321 -35 -390 -8 -69 -30 -280 -50 -470 -37 -366
-49 -456 -67 -494 -6 -14 -28 -31 -53 -40 -119 -46 -196 -205 -165 -341 6 -27
27 -74 46 -104 l36 -53 -50 -44 c-87 -76 -112 -190 -72 -326 11 -39 12 -50 2
-60 -19 -19 -504 -17 -526 1 -13 11 -16 35 -14 126 1 111 0 115 -36 191 l-36
77 50 48 c114 110 131 267 43 397 -20 29 -34 54 -32 55 60 40 103 87 131 144
28 57 32 77 32 137 -1 75 -27 147 -65 182 -28 25 -24 42 25 94 75 80 94 189
55 315 -26 85 -75 143 -130 151 l-39 7 0 52 c0 29 15 172 34 316 34 256 73
568 116 929 43 358 91 736 96 760 11 51 27 80 43 80 45 0 173 113 213 188 l17
32 185 0 184 0 50 -90z m1942 29 c17 -33 52 -80 78 -105 l47 -45 -38 -35 c-63
-60 -82 -106 -82 -204 0 -73 4 -93 28 -142 33 -68 73 -104 130 -118 23 -6 48
-13 56 -16 11 -4 13 -145 7 -912 -3 -499 -9 -976 -12 -1060 l-7 -153 -51 -25
c-74 -35 -117 -74 -151 -135 -24 -44 -30 -66 -30 -119 1 -72 16 -109 71 -174
19 -22 34 -43 34 -47 0 -4 -15 -26 -34 -48 -46 -55 -60 -101 -59 -192 1 -82
22 -147 68 -201 14 -16 25 -34 25 -40 0 -5 -20 -33 -45 -60 -92 -102 -100
-242 -20 -338 19 -23 35 -45 35 -50 0 -4 -17 -10 -37 -13 -38 -4 -724 11 -730
17 -2 1 11 31 29 64 60 118 43 235 -48 326 -24 24 -44 47 -44 50 0 3 20 24 45
47 25 23 45 50 45 60 0 10 9 24 20 32 66 46 43 205 -45 313 l-35 43 59 58 c49
48 62 69 76 117 22 75 15 157 -20 230 -14 29 -25 60 -25 68 0 8 19 44 41 79
90 139 93 232 10 366 -17 27 -31 57 -31 65 0 8 14 27 31 44 17 16 40 47 50 69
24 52 25 154 2 219 -23 62 -88 135 -149 167 l-46 24 6 120 c4 66 15 316 26
555 38 833 51 1065 61 1098 19 58 40 61 351 62 l278 0 30 -61z m3913 41 l88
-9 52 -57 c29 -32 67 -74 86 -93 66 -71 67 -75 29 -121 -43 -49 -58 -98 -58
-183 0 -136 67 -246 164 -271 60 -14 60 -14 76 -194 6 -70 33 -329 60 -577 66
-607 119 -1135 122 -1219 3 -58 0 -70 -16 -80 -76 -45 -114 -77 -141 -120 -25
-41 -31 -62 -33 -126 -5 -103 19 -161 99 -235 l59 -54 -39 -61 c-52 -80 -65
-121 -58 -185 7 -65 23 -97 88 -176 l52 -61 -43 -42 c-64 -61 -85 -114 -84
-211 0 -61 5 -91 22 -125 l21 -45 -37 -8 c-45 -10 -567 -5 -578 5 -4 5 1 17
12 29 16 18 19 36 18 108 -1 147 -64 260 -177 314 l-53 25 -23 368 c-12 202
-31 476 -42 608 -10 133 -26 331 -35 441 -21 256 -24 571 -6 602 7 12 28 30
48 39 95 45 138 188 98 323 -18 61 -68 121 -133 158 -25 15 -48 28 -50 30 -2
1 20 26 50 55 73 71 102 133 103 223 1 105 -38 173 -134 236 l-24 16 41 47
c67 76 88 128 88 216 0 64 -4 82 -27 121 -15 26 -51 67 -80 92 l-53 46 31 33
c18 18 43 56 57 83 l25 50 123 -3 c68 -2 164 -7 212 -12z m2598 -42 c-38 -52
-40 -42 -4 19 15 26 29 41 31 35 2 -7 -10 -31 -27 -54z m569 55 c0 -5 9 -62
20 -128 26 -165 101 -713 150 -1105 23 -179 59 -435 80 -570 42 -265 63 -411
110 -789 34 -273 61 -456 119 -831 38 -236 91 -640 105 -787 l6 -63 -218 0
c-119 0 -254 3 -298 6 l-82 7 33 43 c37 48 49 99 47 195 -2 116 -63 229 -123
229 -26 0 -24 25 6 64 66 86 78 209 31 313 -15 32 -37 69 -49 81 -30 33 -90
62 -126 62 -21 0 -35 7 -45 23 -11 16 -66 376 -66 430 0 19 -30 4 -38 -20 -9
-24 -11 -25 -11 -7 -1 12 5 37 13 56 13 31 12 56 -9 234 -13 109 -35 298 -50
419 -14 121 -30 246 -36 278 -24 138 -40 294 -46 463 l-6 180 30 13 c81 33
137 136 137 251 0 126 -50 208 -160 260 l-64 31 49 39 c91 72 127 171 101 279
-14 59 -64 130 -115 161 -19 12 -35 25 -35 29 0 5 16 43 35 85 l36 76 234 0
c129 0 235 -3 235 -7z m-5050 -68 c50 -77 85 -109 156 -140 29 -13 57 -32 63
-43 18 -33 30 -183 46 -552 9 -195 22 -440 30 -545 14 -182 39 -614 50 -855
l5 -115 -69 -57 c-89 -74 -131 -151 -131 -242 0 -75 22 -124 84 -193 l48 -53
-44 -49 c-99 -110 -91 -263 20 -383 l54 -58 -47 -52 c-73 -81 -90 -120 -90
-208 0 -89 14 -120 86 -192 l50 -50 -40 -43 c-57 -61 -74 -100 -79 -181 -4
-62 -1 -79 23 -133 15 -34 25 -65 21 -69 -4 -4 -155 -7 -334 -7 -251 0 -332 4
-351 14 l-23 13 30 31 c54 58 67 94 67 187 0 76 -4 93 -33 152 -35 71 -66 101
-122 115 -35 9 -35 10 -42 79 -17 173 -67 1515 -68 1830 l0 151 43 17 c118 45
183 196 147 345 -20 86 -90 161 -150 161 -11 0 -20 3 -20 7 0 3 29 37 65 74
78 80 105 134 105 209 0 74 -33 142 -99 203 l-51 48 45 56 c58 71 70 94 84
164 9 41 9 69 1 104 -14 63 -25 82 -72 132 l-41 41 39 60 c29 44 47 62 69 68
40 10 196 21 326 22 l107 2 42 -65z m1016 23 c27 -61 60 -95 115 -124 27 -13
49 -27 49 -30 0 -3 -17 -25 -38 -49 -46 -53 -62 -100 -62 -188 0 -111 46 -200
126 -245 15 -8 10 -17 -38 -63 -70 -69 -93 -130 -86 -233 8 -115 68 -202 158
-226 22 -6 40 -13 40 -17 0 -3 -24 -29 -53 -57 -79 -76 -102 -130 -102 -241 0
-131 39 -197 125 -211 75 -11 81 -15 95 -47 20 -50 33 -157 55 -487 12 -168
32 -438 46 -600 37 -447 55 -739 52 -847 l-3 -97 -31 -7 c-73 -14 -131 -91
-154 -202 -14 -70 -3 -133 37 -210 16 -28 29 -55 31 -59 7 -16 -658 -1 -674
15 -4 4 2 25 14 46 31 55 37 116 18 189 -18 71 -51 127 -95 165 -17 14 -31 31
-31 37 0 7 16 30 35 52 95 112 83 281 -29 393 -25 25 -46 48 -46 50 0 3 12 5
26 5 37 0 89 56 104 111 7 26 10 78 7 129 -5 103 -32 165 -89 215 l-40 34 36
47 c112 147 71 345 -92 436 -37 22 -59 41 -68 64 -17 40 -31 234 -39 539 -3
127 -10 313 -16 415 -5 102 -16 309 -24 460 -8 151 -18 363 -21 471 l-7 196
34 12 c44 15 123 101 145 156 l17 45 227 0 227 0 19 -42z m2274 17 c0 -8 -4
-17 -10 -20 -6 -4 -10 5 -10 20 0 15 4 24 10 20 6 -3 10 -12 10 -20z m1964
-165 c27 -159 58 -357 140 -910 30 -201 73 -467 95 -592 22 -125 75 -463 116
-750 75 -512 110 -742 140 -903 33 -182 105 -733 105 -812 0 -44 -14 -42 -28
5 -23 82 -37 168 -108 707 -31 238 -113 784 -153 1021 -43 252 -73 454 -131
879 -28 204 -64 449 -80 545 -40 241 -130 898 -130 949 0 38 11 -7 34 -139z
m-1944 69 c0 -20 -15 -26 -25 -9 -9 15 3 43 15 35 5 -3 10 -15 10 -26z m1884
-99 c9 -47 30 -186 46 -310 17 -123 35 -244 41 -268 11 -49 53 -328 129 -857
28 -192 71 -485 95 -650 25 -165 52 -347 60 -405 44 -315 67 -472 94 -625 38
-217 123 -798 125 -849 1 -52 -20 -58 -33 -9 -6 21 -38 234 -72 473 -153 1088
-297 2097 -404 2814 -63 428 -115 783 -115 790 1 30 20 -29 34 -104z m-8867
-1 c32 -16 59 -41 81 -73 28 -42 32 -56 31 -110 -1 -88 -14 -116 -24 -49 -8
64 -44 137 -67 141 -16 3 -18 -5 -18 -58 0 -120 -66 -174 -171 -139 -43 15
-77 45 -81 73 -2 11 -10 21 -18 21 -21 0 -25 -74 -6 -120 21 -49 20 -52 -5
-29 -67 60 -66 216 3 294 72 81 175 100 275 49z m3027 17 c85 -36 149 -152
127 -233 -6 -21 -17 -47 -25 -58 -14 -18 -15 -15 -16 45 -1 154 -59 215 -80
84 -7 -46 -16 -65 -40 -86 -46 -43 -94 -38 -213 20 -8 4 -1 -72 10 -112 8 -31
-15 -9 -37 34 -26 51 -26 140 -1 195 20 44 59 84 106 108 37 20 125 22 169 3z
m3961 -15 c-7 -23 -25 -29 -25 -8 0 14 21 39 28 33 2 -3 1 -14 -3 -25z m1151
-2 c70 -66 43 -228 -46 -274 -57 -29 -118 -18 -172 33 -15 14 -31 23 -34 19
-11 -11 6 -62 36 -107 19 -29 26 -46 18 -49 -27 -9 -98 124 -98 186 0 81 78
190 151 212 52 16 116 7 145 -20z m-9173 4 c9 -9 -13 -34 -24 -27 -14 8 -11
34 4 34 8 0 17 -3 20 -7z m3043 -28 c45 -27 97 -85 114 -129 16 -43 12 -113
-10 -155 -44 -87 -163 -151 -253 -136 -112 19 -177 102 -177 225 0 175 178
282 326 195z m3104 17 c51 -25 91 -105 98 -192 5 -78 -8 -127 -44 -161 l-25
-23 16 38 c22 51 22 154 1 194 -22 42 -34 40 -42 -5 -9 -54 -43 -111 -79 -132
-65 -39 -114 -34 -167 17 -20 18 -28 21 -29 11 -3 -32 4 -56 27 -96 32 -55 16
-55 -30 -2 -95 112 -45 281 104 348 55 25 124 27 170 3z m1016 -37 c28 -16 59
-48 82 -82 33 -50 37 -64 37 -117 0 -100 -68 -202 -147 -220 -39 -9 -35 8 7
34 45 28 80 74 95 127 17 56 -1 122 -45 169 -54 57 -68 41 -34 -42 16 -41 6
-76 -37 -124 -47 -51 -99 -68 -160 -52 -24 7 -49 12 -54 12 -23 0 -7 -39 30
-75 48 -47 50 -58 10 -44 -58 21 -119 120 -120 195 0 96 73 210 155 240 54 19
126 11 181 -21z m-5204 -47 c-9 -9 -12 -7 -12 12 0 19 3 21 12 12 9 -9 9 -15
0 -24z m-1962 -7 c-10 -20 -35 -33 -44 -24 -9 9 35 54 45 47 5 -3 5 -13 -1
-23z m9920 -396 c56 -362 79 -516 165 -1100 41 -280 116 -787 165 -1125 98
-668 158 -1116 165 -1250 5 -84 5 -85 -10 -42 -25 76 -68 363 -160 1062 -31
234 -71 526 -90 650 -33 216 -63 424 -140 985 -20 143 -56 391 -80 550 -50
326 -86 604 -84 649 2 40 19 -54 69 -379z m-1870 330 c-7 -8 -16 -15 -21 -15
-13 0 -11 24 3 38 18 18 35 -3 18 -23z m1276 -69 c-3 -18 -13 -41 -22 -52 -12
-15 -14 -15 -11 -3 3 10 9 50 13 90 7 72 8 73 17 36 5 -21 6 -52 3 -71z
m-1266 5 c0 -20 -17 -37 -27 -28 -7 8 7 47 18 47 5 0 9 -9 9 -19z m-8080 -30
c-10 -20 -35 -33 -44 -24 -9 9 35 54 45 47 5 -3 5 -13 -1 -23z m1970 -12 c0
-10 -4 -19 -10 -19 -5 0 -10 12 -10 26 0 14 4 23 10 19 6 -3 10 -15 10 -26z
m3080 5 c0 -17 -22 -14 -28 4 -2 7 3 12 12 12 9 0 16 -7 16 -16z m3048 -70 c4
-26 -14 -74 -28 -74 -11 0 -14 59 -4 85 8 21 28 14 32 -11z m-8119 -20 c-6 -7
-15 -11 -21 -8 -5 3 -4 12 3 20 6 7 15 11 21 8 5 -3 4 -12 -3 -20z m-3 -102
c-16 -30 -46 -50 -46 -30 0 6 10 26 21 45 27 43 48 30 25 -15z m8142 -20 c4
-26 -16 -65 -29 -57 -10 7 -12 68 -2 79 12 11 28 0 31 -22z m-7097 -18 c14 -7
42 -31 62 -53 80 -89 75 -222 -12 -309 -32 -31 -71 -58 -71 -48 0 3 20 25 44
48 73 72 85 162 30 228 -42 49 -54 40 -54 -38 0 -78 -15 -107 -66 -128 -48
-20 -90 -8 -141 42 -65 64 -78 60 -75 -26 l1 -35 -15 35 c-37 81 -25 156 33
221 74 82 179 107 264 63z m3086 2 c62 -29 103 -85 111 -151 6 -58 -10 -58
-37 0 -28 59 -47 58 -56 -2 -14 -95 -62 -137 -157 -138 -64 0 -103 22 -127 71
l-15 29 -10 -50 c-6 -27 -16 -49 -21 -48 -6 1 -14 26 -19 55 -12 73 5 129 55
183 70 76 179 96 276 51z m963 -11 c0 -7 -6 -18 -14 -24 -17 -14 -27 6 -19 38
4 17 8 19 19 10 8 -6 14 -17 14 -24z m4225 -8 c17 -9 44 -27 60 -41 l30 -25
-49 6 c-46 6 -49 5 -41 -13 5 -10 10 -40 13 -65 3 -41 0 -51 -28 -82 -56 -64
-125 -71 -198 -22 -52 35 -72 33 -72 -7 0 -51 39 -108 90 -135 37 -20 53 -23
96 -17 56 7 75 -5 53 -32 -25 -30 -156 12 -217 69 -80 74 -88 209 -18 302 65
85 188 112 281 62z m-6295 14 c0 -17 -12 -41 -21 -41 -10 0 -12 33 -2 43 9 10
23 9 23 -2z m3175 -20 c106 -49 160 -159 123 -248 -11 -27 -12 -26 -19 29 -9
62 -23 98 -40 98 -12 0 -16 -11 -24 -75 -5 -39 -15 -57 -45 -87 -33 -33 -44
-38 -83 -38 -64 0 -96 15 -145 68 l-43 46 6 -70 7 -69 -20 24 c-23 29 -42 86
-42 127 0 71 71 168 145 200 44 19 133 17 180 -5z m-6215 -46 c0 -21 -43 -62
-48 -47 -5 15 24 62 38 62 6 0 10 -7 10 -15z m5110 -39 c0 -29 -19 -44 -30
-25 -9 14 5 49 20 49 6 0 10 -11 10 -24z m-2060 0 c0 -20 -26 -40 -35 -26 -10
16 2 40 20 40 8 0 15 -6 15 -14z m5122 -11 c-2 -11 -9 -26 -15 -33 -14 -18
-31 11 -22 39 9 26 41 21 37 -6z m-1024 -7 c-6 -18 -28 -21 -28 -4 0 9 7 16
16 16 9 0 14 -5 12 -12z m2312 -67 c0 -82 -23 -150 -64 -190 -18 -18 -36 -28
-40 -23 -3 5 4 18 15 28 37 34 59 89 59 151 0 32 3 68 6 80 11 40 24 14 24
-46z m-9476 -6 c-8 -19 -39 -37 -48 -28 -8 9 24 43 40 43 8 0 11 -6 8 -15z
m3066 -9 c0 -20 -26 -40 -35 -26 -10 16 2 40 20 40 8 0 15 -6 15 -14z m4110
-34 c0 -15 -5 -22 -12 -20 -16 6 -22 33 -13 56 5 14 7 14 15 2 6 -8 10 -25 10
-38z m1020 14 c0 -28 -24 -53 -35 -36 -4 6 -4 22 -1 36 8 31 36 32 36 0z
m-3070 -14 c0 -26 -11 -34 -27 -21 -10 9 -10 15 -2 25 16 19 29 17 29 -4z
m-5130 -30 c0 -5 -12 -19 -26 -33 l-27 -24 17 33 c15 29 36 43 36 24z m2010
-29 c0 -35 -14 -60 -24 -44 -9 15 3 71 15 71 5 0 9 -12 9 -27z m6208 -60 c4
-38 -23 -65 -33 -33 -9 29 3 72 18 67 7 -2 13 -17 15 -34z m-5150 1 c3 -23
-21 -49 -38 -39 -11 7 -14 48 -3 59 13 13 38 1 41 -20z m4124 -6 c-13 -13 -32
-2 -32 18 0 12 4 13 21 3 14 -7 18 -14 11 -21z m-2065 -10 c-3 -7 -5 -2 -5 12
0 14 2 19 5 13 2 -7 2 -19 0 -25z m2066 -63 c4 -8 2 -17 -3 -20 -6 -4 -10 3
-10 14 0 25 6 27 13 6z m-7235 -45 c-7 -11 -16 -20 -21 -20 -4 0 -3 9 3 20 6
11 15 20 20 20 6 0 5 -9 -2 -20z m2032 -11 c0 -10 -4 -19 -10 -19 -5 0 -10 12
-10 26 0 14 4 23 10 19 6 -3 10 -15 10 -26z m3160 12 c0 -5 -6 -14 -14 -20
-10 -9 -15 -8 -19 3 -3 8 -3 17 0 20 9 9 33 7 33 -3z m3085 -1 c10 -16 -16
-43 -28 -31 -11 11 -2 41 12 41 5 0 13 -5 16 -10z m-4097 -35 c51 -16 132 -79
132 -103 0 -7 -15 -12 -34 -12 -36 0 -46 -12 -46 -56 0 -62 -70 -124 -140
-124 -31 0 -79 18 -112 42 -15 10 -21 10 -34 -4 -15 -15 -15 -19 0 -49 19 -37
21 -53 5 -43 -21 13 -49 89 -49 137 0 105 70 192 175 218 44 10 47 10 103 -6z
m-4168 -30 c0 -14 -25 -55 -36 -59 -19 -7 -18 14 2 42 13 19 34 30 34 17z
m6317 -25 c55 -32 103 -85 103 -115 0 -18 -1 -18 -13 -1 -9 12 -23 17 -42 14
-29 -3 -30 -5 -27 -46 9 -109 -139 -183 -236 -117 -20 14 -40 25 -44 25 -19 0
-5 -52 27 -99 20 -28 31 -51 25 -51 -19 0 -93 75 -107 107 -27 67 -12 157 40
224 69 91 178 114 274 59z m3013 9 c0 -24 -23 -21 -28 4 -2 10 3 17 12 17 10
0 16 -9 16 -21z m-4153 -51 c-3 -7 -5 -2 -5 12 0 14 2 19 5 13 2 -7 2 -19 0
-25z m3093 -14 c0 -13 -4 -24 -10 -24 -5 0 -10 14 -10 31 0 17 4 28 10 24 6
-3 10 -17 10 -31z m-6250 0 c0 -8 -4 -14 -10 -14 -5 0 -10 9 -10 21 0 11 5 17
10 14 6 -3 10 -13 10 -21z m1065 -1 c-7 -30 -21 -50 -30 -41 -8 8 16 68 27 68
6 0 7 -11 3 -27z m4158 -8 c4 -8 2 -17 -3 -20 -6 -4 -10 3 -10 14 0 25 6 27
13 6z m2087 -32 c0 -20 -3 -24 -11 -16 -7 7 -9 19 -6 27 10 24 17 19 17 -11z
m-4153 -65 c-3 -7 -5 -2 -5 12 0 14 2 19 5 13 2 -7 2 -19 0 -25z m-5207 -9
c-12 -22 -30 -25 -30 -6 0 17 21 38 32 31 4 -3 3 -14 -2 -25z m7298 -3 c4 -20
-16 -48 -29 -40 -11 6 -12 48 -2 58 11 10 28 1 31 -18z m1022 -7 c0 -10 -4
-19 -10 -19 -5 0 -10 12 -10 26 0 14 4 23 10 19 6 -3 10 -15 10 -26z m1057
-26 c-3 -10 -5 -4 -5 12 0 17 2 24 5 18 2 -7 2 -21 0 -30z m-2910 -25 c-2 -13
-4 -5 -4 17 -1 22 1 32 4 23 2 -10 2 -28 0 -40z m-6477 -29 c0 -17 -20 -49
-30 -49 -11 0 -14 43 -3 53 10 11 33 8 33 -4z m3130 -23 c0 -27 -23 -77 -31
-69 -11 11 8 83 21 83 6 0 10 -6 10 -14z m-2141 -44 c-6 -18 -15 -32 -20 -32
-12 0 -11 37 2 62 17 31 31 8 18 -30z m8436 38 c4 -6 -1 -22 -10 -37 -22 -34
-44 -16 -27 22 12 26 26 32 37 15z m-2123 -32 c-9 -9 -12 -7 -12 12 0 19 3 21
12 12 9 -9 9 -15 0 -24z m1048 1 c0 -10 -4 -19 -10 -19 -5 0 -10 12 -10 26 0
14 4 23 10 19 6 -3 10 -15 10 -26z m-8360 -50 c-12 -22 -30 -25 -30 -6 0 17
21 38 32 31 4 -3 3 -14 -2 -25z m2050 -5 c0 -8 -4 -14 -10 -14 -5 0 -10 9 -10
21 0 11 5 17 10 14 6 -3 10 -13 10 -21z m5295 -35 c9 -27 -12 -50 -25 -29 -14
22 -12 50 4 50 8 0 18 -9 21 -21z m-1057 2 c10 -6 10 -10 -1 -19 -16 -13 -77
2 -77 19 0 11 60 12 78 0z m3138 -49 c-24 -24 -29 -8 -10 30 18 31 19 32 22 9
2 -13 -3 -31 -12 -39z m-1046 22 c0 -8 -4 -14 -10 -14 -5 0 -10 9 -10 21 0 11
5 17 10 14 6 -3 10 -13 10 -21z m-5240 -23 c0 -23 -25 -46 -35 -32 -7 13 12
51 25 51 6 0 10 -8 10 -19z m4218 -77 c1 -10 -4 -28 -12 -39 -14 -19 -15 -19
-21 -2 -10 24 3 69 18 64 7 -2 13 -12 15 -23z m1042 17 c0 -12 -29 -35 -36
-28 -11 10 5 37 21 37 8 0 15 -4 15 -9z m1060 -10 c0 -23 -25 -47 -35 -31 -10
16 4 50 21 50 8 0 14 -8 14 -19z m-9475 -31 c7 -12 -12 -50 -25 -50 -11 0 -14
43 -3 53 9 10 21 9 28 -3z m3161 -2 c-3 -7 -7 -25 -10 -40 -4 -19 -13 -28 -26
-28 -25 0 -25 7 0 48 19 31 43 45 36 20z m3141 -25 c-3 -10 -5 -4 -5 12 0 17
2 24 5 18 2 -7 2 -21 0 -30z m-2097 -25 c0 -16 -3 -19 -11 -11 -6 6 -8 16 -5
22 11 17 16 13 16 -11z m1057 -10 c-3 -7 -5 -2 -5 12 0 14 2 19 5 13 2 -7 2
-19 0 -25z m-4267 -13 c-7 -8 -16 -15 -21 -15 -13 0 -11 24 3 38 18 18 35 -3
18 -23z m1160 5 c109 -55 163 -201 109 -290 -20 -32 -23 -33 -29 -15 -4 11
-13 47 -19 79 -13 72 -42 130 -66 135 -16 3 -17 -2 -10 -50 15 -99 11 -119
-23 -151 -52 -45 -118 -37 -186 23 -20 17 -38 30 -40 28 -2 -2 0 -29 5 -58 4
-30 6 -57 4 -60 -9 -8 -33 32 -50 78 -22 65 -19 119 11 179 29 58 66 89 139
114 56 20 99 17 155 -12z m6313 7 c79 -33 143 -119 154 -204 6 -55 -22 -137
-59 -170 -21 -18 -21 -18 -15 7 3 14 16 52 28 85 26 72 21 124 -17 162 -24 24
-26 24 -45 7 -10 -9 -19 -28 -19 -41 0 -32 -22 -72 -59 -107 -30 -28 -30 -29
-65 -12 -42 20 -56 20 -84 0 -29 -20 -28 -41 4 -87 45 -67 5 -58 -59 12 -63
70 -71 153 -22 236 61 105 165 150 258 112z m1027 -11 c0 -25 -12 -46 -26 -46
-15 0 -18 18 -8 44 8 20 34 21 34 2z m-2110 -108 c0 -49 -4 -88 -9 -88 -11 0
-22 119 -14 165 10 61 23 18 23 -77z m-7405 43 c-8 -32 -23 -51 -41 -51 -20 0
-17 19 8 56 25 37 43 35 33 -5z m3159 -38 c-11 -26 -18 -33 -21 -21 -2 9 4 33
13 55 11 26 18 33 21 21 2 -9 -4 -33 -13 -55z m2146 8 c0 -23 -16 -36 -25 -21
-9 14 1 40 15 40 5 0 10 -9 10 -19z m-4316 -67 c-17 -38 -18 -38 -21 -12 -3
15 4 42 14 60 15 29 18 31 21 12 2 -12 -5 -39 -14 -60z m8534 37 c3 -21 -11
-40 -29 -41 -12 0 -20 32 -13 52 8 26 38 18 42 -11z m-9543 -60 c-3 -12 -11
-21 -16 -21 -10 0 -12 21 -3 45 10 24 27 2 19 -24z m6362 -3 c-3 -7 -5 -2 -5
12 0 14 2 19 5 13 2 -7 2 -19 0 -25z m3189 -43 c-4 -14 -13 -25 -21 -25 -19 0
-19 4 2 43 17 34 29 23 19 -18z m-6377 -31 c-6 -8 -15 -14 -20 -14 -9 0 -7 6
13 55 l12 30 4 -28 c2 -16 -2 -35 -9 -43z m2148 34 c-3 -7 -5 -2 -5 12 0 14 2
19 5 13 2 -7 2 -19 0 -25z m-5327 -36 c0 -13 -31 -52 -41 -52 -6 0 -2 14 8 30
16 28 33 39 33 22z m6367 -24 c-3 -7 -5 -2 -5 12 0 14 2 19 5 13 2 -7 2 -19 0
-25z m1090 -5 c-4 -20 -13 -44 -22 -52 -13 -14 -15 -12 -15 21 0 47 8 68 27
68 12 0 14 -8 10 -37z m-6452 -32 c-7 -35 -35 -64 -35 -37 0 21 30 80 37 73 3
-3 2 -19 -2 -36z m8571 4 c7 -30 -2 -75 -16 -75 -15 0 -32 51 -25 77 7 31 33
29 41 -2z m-6390 -50 c-4 -14 -13 -25 -21 -25 -19 0 -19 4 2 43 17 34 29 23
19 -18z m-3201 -14 c-3 -12 -11 -21 -16 -21 -10 0 -12 21 -3 45 10 24 27 2 19
-24z m6382 -3 c-3 -7 -5 -2 -5 12 0 14 2 19 5 13 2 -7 2 -19 0 -25z m-2097 8
c0 -15 -18 -31 -26 -23 -7 7 7 37 17 37 5 0 9 -6 9 -14z m3188 -42 c1 -10 -2
-26 -8 -34 -15 -23 -34 3 -26 35 8 29 30 29 34 -1z m1119 -24 c72 -32 147
-182 127 -252 -15 -48 -28 -37 -41 34 -13 70 -24 100 -51 131 -31 35 -42 21
-42 -53 0 -84 -12 -114 -55 -135 -43 -20 -54 -19 -115 5 -28 11 -57 20 -65 20
-29 0 -15 -37 35 -94 55 -63 64 -87 23 -61 -79 50 -113 107 -113 190 0 166
157 279 297 215z m1008 -26 c0 -19 -6 -30 -17 -32 -19 -4 -24 21 -12 53 10 25
29 12 29 -21z m-7427 10 c84 -35 132 -110 132 -209 l0 -60 -46 73 c-25 39 -49
72 -54 72 -12 0 -20 -28 -20 -72 0 -75 -42 -128 -101 -128 -26 0 -75 25 -119
61 -60 50 -72 38 -44 -44 22 -64 12 -82 -16 -27 -28 54 -37 152 -20 204 16 50
66 105 115 127 49 23 123 24 173 3z m-2169 -10 c154 -45 212 -232 111 -359
-34 -42 -38 -40 -13 8 23 45 22 142 -3 192 -28 59 -50 53 -46 -11 4 -62 -16
-107 -58 -129 -54 -28 -98 -18 -157 37 -17 17 -36 27 -42 24 -6 -4 -11 -32
-11 -62 0 -30 -4 -53 -9 -50 -5 3 -17 38 -26 77 -15 60 -16 80 -6 122 18 81
73 141 144 157 48 12 59 11 116 -6z m1001 5 c0 -17 -20 -49 -30 -49 -11 0 -14
43 -3 53 10 11 33 8 33 -4z m2200 -13 c0 -35 -10 -56 -26 -56 -17 0 -17 7 -3
49 13 37 29 41 29 7z m2218 8 c107 -44 179 -192 139 -284 l-15 -35 -1 60 c-1
71 -15 126 -39 154 -35 42 -44 31 -45 -55 -2 -91 -15 -115 -75 -141 -45 -19
-96 -4 -152 44 l-43 37 6 -72 c4 -40 3 -72 -2 -72 -5 0 -19 23 -31 52 -49 114
-7 257 90 306 52 26 115 29 168 6z m982 -29 c0 -19 -2 -35 -5 -35 -9 0 -25 51
-19 61 12 20 24 7 24 -26z m-2120 1 c0 -15 -18 -31 -26 -23 -7 7 7 37 17 37 5
0 9 -6 9 -14z m3210 -29 c0 -19 -27 -53 -35 -45 -12 12 4 58 20 58 8 0 15 -6
15 -13z m2120 -54 c0 -35 -14 -58 -29 -49 -14 9 -14 31 -1 57 15 28 30 23 30
-8z m-8631 -53 c-13 -22 -26 -40 -31 -40 -9 0 16 66 34 88 23 27 20 -6 -3 -48z
m2219 4 c1 -10 -2 -26 -8 -34 -15 -23 -34 3 -26 35 8 29 30 29 34 -1z m4292
-9 c0 -8 -4 -17 -10 -20 -6 -4 -10 5 -10 20 0 15 4 24 10 20 6 -3 10 -12 10
-20z m2140 -54 c0 -28 -19 -36 -38 -17 -15 15 -15 18 -2 26 24 15 40 12 40 -9z
m-5353 -53 c-3 -7 -5 -2 -5 12 0 14 2 19 5 13 2 -7 2 -19 0 -25z m3233 3 c0
-32 -14 -49 -25 -31 -9 15 3 60 15 60 6 0 10 -13 10 -29z m-6533 -28 c-6 -37
-31 -72 -43 -60 -9 9 25 97 38 97 7 0 8 -14 5 -37z m2203 -23 c0 -11 -4 -20
-10 -20 -5 0 -10 9 -10 20 0 11 5 20 10 20 6 0 10 -9 10 -20z m6470 -21 c0
-27 -18 -32 -30 -8 -16 29 -5 56 15 39 8 -7 15 -21 15 -31z m-5373 -71 c-3 -7
-5 -2 -5 12 0 14 2 19 5 13 2 -7 2 -19 0 -25z m4386 -14 c76 -39 117 -104 125
-200 5 -67 -4 -138 -17 -130 -5 3 -10 38 -13 78 -3 40 -11 83 -18 94 -13 20
-60 54 -75 54 -4 0 -4 -31 0 -68 6 -57 4 -71 -12 -90 -24 -31 -77 -41 -160
-32 -37 4 -70 6 -72 4 -2 -2 5 -25 17 -51 23 -54 19 -73 -10 -46 -31 27 -68
113 -68 157 0 159 177 294 303 230z m-7703 -20 c0 -8 -4 -14 -10 -14 -5 0 -10
9 -10 21 0 11 5 17 10 14 6 -3 10 -13 10 -21z m1195 -27 c79 -44 114 -131 97
-236 -16 -93 -32 -101 -33 -15 0 78 -16 132 -42 148 -23 15 -37 -6 -37 -57 0
-51 -22 -99 -56 -126 -46 -36 -100 -25 -165 33 -66 60 -80 50 -49 -34 12 -33
20 -63 17 -66 -11 -12 -36 43 -47 104 -13 76 2 136 50 194 63 77 183 102 265
55z m5426 8 c129 -46 194 -203 134 -328 -23 -49 -41 -35 -26 19 20 72 12 154
-14 154 -15 0 -25 -22 -25 -55 0 -59 -103 -124 -177 -112 -21 4 -49 19 -68 37
-38 37 -45 37 -45 5 0 -34 24 -91 57 -133 l26 -35 -29 7 c-70 16 -109 102
-102 221 7 107 55 183 138 219 45 20 77 20 131 1z m-2155 -10 c145 -43 230
-219 158 -330 -19 -30 -24 -33 -19 -15 20 78 18 120 -9 160 -26 39 -49 50 -61
30 -3 -5 -10 -36 -15 -67 -11 -67 -51 -113 -98 -113 -28 0 -82 28 -119 62 -12
11 -26 17 -32 13 -18 -11 -12 -43 19 -105 34 -68 24 -78 -26 -25 -109 116 -48
360 99 395 47 11 49 11 103 -5z m-5453 -16 c41 -11 117 -73 117 -95 0 -7 -14
-14 -36 -16 -33 -3 -37 -6 -54 -57 -30 -88 -76 -137 -142 -147 -32 -6 -41 -2
-68 24 -21 21 -30 40 -30 62 0 37 -17 73 -31 65 -26 -17 2 -169 41 -218 26
-33 26 -45 -1 -21 -39 34 -69 113 -69 180 0 159 128 264 273 223z m3296 -18
c69 -36 132 -125 145 -207 7 -39 -16 -124 -33 -124 -4 0 -12 33 -18 73 -23
157 -82 205 -83 66 0 -48 -37 -101 -78 -113 -42 -12 -102 6 -145 43 -17 15
-42 33 -55 40 -32 17 -39 -9 -19 -72 9 -28 14 -53 11 -56 -2 -3 -16 7 -30 21
-55 55 -37 169 42 257 79 87 178 115 263 72z m6396 -31 c0 -13 -5 -25 -11 -27
-14 -5 -25 22 -17 42 8 23 28 12 28 -15z m-3228 -12 c-3 -7 -5 -2 -5 12 0 14
2 19 5 13 2 -7 2 -19 0 -25z m-5497 -34 c0 -8 -4 -14 -10 -14 -5 0 -10 9 -10
21 0 11 5 17 10 14 6 -3 10 -13 10 -21z m3357 -66 c-3 -7 -5 -2 -5 12 0 14 2
19 5 13 2 -7 2 -19 0 -25z m-4184 -3 c4 -8 2 -17 -3 -20 -6 -4 -10 3 -10 14 0
25 6 27 13 6z m6324 -32 c-3 -10 -5 -2 -5 17 0 19 2 27 5 18 2 -10 2 -26 0
-35z m-5497 -22 c0 -12 -29 -35 -36 -28 -11 10 5 37 21 37 8 0 15 -4 15 -9z
m8747 -48 c-3 -10 -5 -4 -5 12 0 17 2 24 5 18 2 -7 2 -21 0 -30z m-9576 -11
c-11 -37 -41 -95 -47 -89 -7 7 36 117 46 117 5 0 5 -13 1 -28z m4204 -2 c4 -6
1 -18 -6 -26 -11 -14 -13 -14 -21 0 -15 26 12 51 27 26z m-3385 -55 c0 -18
-33 -78 -37 -67 -6 16 16 72 28 72 5 0 9 -2 9 -5z m7790 -4 c0 -10 -24 -21
-43 -21 -7 0 -3 7 7 15 22 17 36 19 36 6z m-4410 -73 c0 -13 -4 -30 -9 -37 -8
-12 -11 -9 -16 11 -7 28 -1 48 16 48 5 0 9 -10 9 -22z m2147 -25 c-3 -10 -5
-2 -5 17 0 19 2 27 5 18 2 -10 2 -26 0 -35z m2287 -10 c54 -27 96 -75 111
-127 8 -27 13 -51 11 -53 -2 -3 -23 20 -45 50 -22 31 -45 58 -51 62 -6 4 -10
-18 -10 -62 -1 -105 -42 -177 -105 -183 -50 -5 -75 2 -116 35 -24 19 -52 35
-61 35 -26 0 -31 -36 -13 -91 22 -65 14 -72 -19 -16 -88 149 -21 327 139 368
40 11 121 2 159 -18z m1106 -6 c94 -48 134 -161 95 -276 -9 -28 -21 -51 -26
-51 -5 0 -9 51 -9 113 0 76 -4 118 -12 129 -32 38 -98 64 -98 37 0 -6 9 -24
21 -40 29 -42 34 -89 14 -133 -36 -76 -129 -98 -219 -50 -26 14 -50 23 -53 20
-3 -3 13 -40 36 -82 23 -42 40 -79 37 -81 -9 -9 -92 82 -111 122 -30 63 -32
145 -5 200 54 112 206 154 330 92z m-7779 -9 c46 -13 113 -68 134 -108 42 -81
35 -171 -17 -234 -16 -20 -32 -35 -34 -33 -2 2 3 21 12 43 28 67 2 194 -41
194 -21 0 -26 -16 -14 -44 15 -32 0 -72 -41 -111 -24 -23 -38 -28 -75 -27 -73
1 -116 36 -125 102 -4 27 -10 35 -25 35 -18 0 -20 -7 -21 -72 0 -40 -3 -75 -6
-79 -13 -12 -38 57 -38 103 1 92 57 177 145 219 56 27 90 29 146 12z m1162 -2
c20 -8 53 -26 73 -41 67 -51 106 -182 69 -231 -14 -18 -14 -17 -15 14 0 18 -7
49 -15 68 -11 28 -19 35 -37 32 -17 -2 -25 -14 -35 -47 -25 -87 -109 -142
-186 -120 -37 10 -67 48 -67 84 0 18 -12 19 -28 3 -20 -20 -14 -53 24 -123 19
-37 33 -70 29 -73 -10 -11 -68 54 -91 103 -30 63 -32 152 -5 210 50 108 173
160 284 121z m4444 -22 c79 -28 144 -139 132 -224 -3 -20 -9 -12 -27 38 -26
71 -74 132 -103 132 -29 0 -34 -28 -10 -54 16 -17 21 -35 21 -75 0 -46 -4 -57
-30 -81 -54 -50 -152 -52 -209 -4 -25 21 -30 22 -41 9 -39 -47 -54 25 -25 123
25 84 82 136 165 152 40 8 68 5 127 -16z m-2226 -16 c56 -16 114 -70 134 -123
19 -50 17 -129 -6 -180 -12 -29 -13 -28 -19 45 -11 130 -68 197 -62 72 3 -54
1 -64 -21 -86 -66 -66 -202 -51 -229 25 -18 52 -55 27 -42 -29 11 -43 34 -84
67 -119 48 -51 26 -49 -31 2 -67 61 -96 121 -89 185 18 154 157 251 298 208z
m-4518 -14 c90 -31 167 -137 167 -231 0 -33 -14 -28 -28 10 -13 35 -68 107
-83 107 -5 0 -7 -17 -3 -38 14 -87 -51 -157 -139 -149 -52 5 -77 22 -113 80
-14 20 -32 37 -41 37 -14 0 -15 -10 -9 -81 7 -85 -4 -100 -24 -31 -25 90 3
184 76 254 63 60 113 71 197 42z m-1012 -17 c56 -30 96 -87 111 -158 10 -49 9
-63 -6 -103 -10 -25 -22 -46 -27 -46 -5 0 -8 36 -6 79 1 56 -2 84 -11 93 -14
14 -16 12 -81 -73 -14 -17 -39 -38 -57 -45 -68 -29 -164 -9 -164 33 0 33 -15
0 -25 -55 l-11 -57 -17 57 c-30 98 -17 179 36 237 57 62 178 80 258 38z m4399
8 c0 -16 -27 -32 -37 -21 -7 7 16 36 28 36 5 0 9 -7 9 -15z m2157 -42 c-3 -10
-5 -2 -5 17 0 19 2 27 5 18 2 -10 2 -26 0 -35z m-2157 -58 c0 -16 -27 -32 -37
-21 -7 7 16 36 28 36 5 0 9 -7 9 -15z m2157 -72 c-3 -10 -5 -2 -5 17 0 19 2
27 5 18 2 -10 2 -26 0 -35z m-2165 -55 c-15 -15 -21 4 -9 32 l10 25 5 -24 c2
-13 -1 -28 -6 -33z m2165 -50 c-3 -7 -5 -2 -5 12 0 14 2 19 5 13 2 -7 2 -19 0
-25z m-2067 -147 c70 -42 104 -98 108 -180 3 -50 0 -78 -13 -105 -10 -20 -21
-36 -25 -36 -4 0 -6 39 -6 88 1 71 -2 87 -14 87 -9 0 -16 -11 -18 -25 -11 -99
-132 -140 -250 -85 l-52 24 6 -53 c8 -64 -8 -81 -32 -35 -23 45 -29 139 -13
196 18 66 90 138 150 151 59 13 105 5 159 -27z m5485 -5 c86 -40 115 -87 115
-184 0 -67 -14 -125 -35 -142 -13 -11 -13 -8 0 23 30 73 11 193 -35 217 -25
13 -30 4 -30 -62 0 -169 -99 -205 -245 -88 -36 28 -40 30 -46 13 -4 -10 -8
-28 -8 -40 -2 -40 -20 -34 -32 9 -19 73 2 141 66 204 77 77 158 94 250 50z
m-6657 -15 c49 -25 107 -87 127 -133 22 -55 18 -197 -6 -182 -5 3 -9 22 -9 44
0 80 -61 226 -100 238 -12 4 -11 1 3 -15 23 -26 22 -37 -4 -30 -21 6 -21 4
-15 -61 5 -53 3 -74 -11 -102 -27 -52 -60 -59 -138 -32 -35 12 -70 22 -78 22
-25 0 -28 -30 -7 -77 24 -55 19 -65 -16 -32 -86 80 -77 234 20 328 64 62 152
74 234 32z m3349 14 c98 -41 147 -112 147 -210 0 -42 -6 -72 -21 -100 -26 -49
-31 -39 -35 77 -3 75 -6 90 -27 112 -30 32 -66 33 -85 4 -8 -13 -21 -51 -29
-85 -8 -34 -22 -74 -32 -89 -18 -28 -36 -29 -142 -8 -44 8 -42 -6 7 -52 61
-58 49 -79 -14 -24 -88 78 -85 252 6 337 54 51 153 68 225 38z m2160 4 c117
-44 176 -249 92 -325 -20 -18 -20 -18 -4 12 33 63 5 203 -44 219 -34 10 -41
-2 -41 -73 0 -79 -22 -131 -63 -150 -38 -18 -74 -5 -143 54 -73 62 -84 49 -39
-44 38 -80 35 -95 -7 -29 -55 87 -46 182 25 264 65 73 150 100 224 72z m-6645
-45 c58 -40 92 -104 92 -169 -1 -54 -35 -160 -59 -184 -22 -23 -20 7 3 32 25
28 23 139 -3 192 -11 22 -24 39 -30 38 -5 -1 -15 -27 -22 -59 -14 -69 -52
-112 -105 -121 -51 -8 -79 1 -128 42 -67 56 -85 44 -55 -40 17 -48 13 -56 -11
-20 -10 15 -19 50 -22 79 -7 90 47 183 133 230 21 12 49 15 97 13 56 -2 74 -8
110 -33z m3419 0 c46 -27 47 -47 4 -72 -24 -15 -35 -28 -34 -44 l0 -23 9 23
c5 12 14 22 19 22 21 0 19 -18 -4 -50 -14 -19 -25 -42 -25 -51 0 -38 -82 -109
-125 -109 -28 0 -76 41 -92 77 -7 19 -19 33 -26 30 -19 -6 -20 -100 -2 -143
21 -51 12 -54 -19 -7 -83 126 -48 289 76 352 55 28 167 25 219 -5z m2174 2
c93 -43 156 -142 140 -219 -7 -33 -44 -101 -51 -94 -2 2 0 24 4 48 10 58 -1
131 -28 174 -34 54 -50 46 -50 -25 0 -74 -17 -117 -59 -153 -49 -41 -133 -35
-167 11 -16 22 -34 5 -34 -33 0 -21 9 -44 26 -64 l26 -31 -24 0 c-64 0 -103
78 -96 193 6 97 43 167 102 197 58 28 146 27 211 -4z m-7869 1 c52 -22 85 -49
109 -91 34 -58 48 -128 35 -176 -16 -59 -27 -56 -22 6 5 66 -14 140 -41 159
-30 21 -47 2 -47 -54 -1 -68 -31 -128 -76 -147 -48 -20 -88 -6 -144 51 -73 74
-99 54 -64 -49 21 -61 10 -72 -16 -15 -51 113 -8 246 99 301 59 31 120 36 167
15z m1069 2 c78 -21 135 -88 151 -179 l6 -35 -22 42 c-32 62 -70 69 -70 14 0
-43 -58 -120 -112 -150 -46 -26 -47 -26 -81 -8 -19 10 -49 43 -70 74 l-36 57
-17 -63 c-16 -56 -19 -60 -27 -39 -5 12 -9 48 -9 79 -1 70 32 133 90 172 67
44 127 55 197 36z m4723 -141 c13 -13 15 -92 3 -123 -6 -15 -11 -4 -20 46 -6
36 -11 71 -11 77 0 15 13 15 28 0z m4047 -189 c14 -22 -3 -18 -26 7 -23 25
-23 26 -2 15 12 -6 25 -16 28 -22z m1221 -304 c9 -21 -63 -149 -185 -329 -85
-128 -113 -162 -137 -168 -89 -25 -860 -30 -5889 -35 -4700 -4 -5518 -2 -5502
13 3 3 2472 9 5488 15 3016 6 5534 14 5594 18 l110 6 -125 8 c-187 12 -11066
-1 -11175 -12 -78 -9 -93 -14 -110 -35 -19 -24 -21 -24 -52 -9 -18 8 -47 34
-66 57 -59 72 -227 318 -227 331 0 7 -12 34 -26 59 -15 26 -24 49 -22 52 3 2
1760 9 3904 15 3462 9 7532 23 8182 27 196 2 234 0 238 -13z"/>
<path d="M10696 7153 c-3 -3 -6 -30 -6 -58 0 -87 -58 -135 -163 -135 -31 0
-59 -4 -62 -10 -3 -5 2 -21 11 -35 57 -87 236 -69 285 28 27 51 23 145 -6 178
-24 26 -50 40 -59 32z"/>
<path d="M9770 6670 c-5 -10 -10 -33 -10 -50 0 -17 -7 -46 -15 -66 -20 -49
-62 -64 -176 -64 l-92 0 24 -26 c39 -43 120 -84 163 -84 98 0 178 81 178 179
0 81 -48 156 -72 111z"/>
<path d="M6295 5520 c-89 -3 -140 -8 -125 -12 31 -10 1344 -8 1385 1 78 18
-850 26 -1260 11z"/>
<path d="M6885 5270 c-3 -5 -3 -24 0 -42 17 -94 -129 -177 -205 -118 -30 24
-56 25 -64 4 -8 -20 8 -50 48 -92 42 -45 77 -62 127 -62 121 0 223 122 190
229 -15 52 -80 106 -96 81z"/>
<path d="M4830 4805 c0 -9 7 -32 15 -52 30 -72 10 -139 -53 -169 -46 -22 -91
-12 -143 32 -49 41 -68 34 -50 -17 64 -183 301 -168 352 23 17 61 1 116 -47
163 -36 36 -74 46 -74 20z"/>
<path d="M990 519 c-728 -8 -866 -22 -330 -34 441 -9 8197 3 10090 16 789 6
1455 14 1480 18 55 10 -10364 10 -11240 0z"/>
<path d="M1105 440 c-785 -9 -933 -23 -345 -35 416 -8 9221 11 10565 22 740 7
807 9 520 14 -452 8 -9907 7 -10740 -1z"/>
<path d="M3855 348 c-1815 -4 -3334 -11 -3375 -16 -45 -5 480 -11 1320 -16
1760 -11 10317 7 10331 21 6 6 -466 12 -1387 16 -1498 7 -1841 7 -6889 -5z"/>
<path d="M3270 280 c-1860 -8 -2680 -17 -2745 -31 -45 -10 8865 -3 9683 8 338
4 518 10 507 16 -22 12 -5134 17 -7445 7z"/>
<path d="M11168 281 c-152 -4 -280 -9 -283 -13 -13 -13 308 -20 721 -16 384 4
459 7 443 22 -9 8 -620 13 -881 7z"/>
<path d="M9100 199 c-1108 -3 -3203 -8 -4655 -10 -2869 -4 -3818 -10 -3795
-22 31 -15 1134 -25 2475 -21 754 2 2842 7 4640 10 3292 6 4228 13 4246 31 17
17 -185 24 -554 21 -188 -2 -1249 -6 -2357 -9z"/>
</g>
</svg>
