<?xml version="1.0" standalone="no"?>
<!DOCTYPE svg PUBLIC "-//W3C//DTD SVG 20010904//EN"
 "http://www.w3.org/TR/2001/REC-SVG-20010904/DTD/svg10.dtd">
<svg version="1.0" xmlns="http://www.w3.org/2000/svg"
 width="1244.000000pt" height="1280.000000pt" viewBox="0 0 1244.000000 1280.000000"
 preserveAspectRatio="xMidYMid meet">
<metadata>
Created by potrace 1.15, written by Peter Selinger 2001-2017
</metadata>
<g transform="translate(0.000000,1280.000000) scale(0.100000,-0.100000)"
fill="#000000" stroke="none">
<path d="M8920 12790 c-152 -19 -1867 -90 -2165 -90 -57 0 -61 -2 -72 -27 -6
-16 -48 -113 -93 -218 -45 -104 -89 -207 -97 -227 -15 -36 -16 -37 -62 -31
-41 4 -69 -4 -251 -77 -113 -45 -437 -169 -720 -275 -283 -107 -536 -202 -561
-213 l-46 -20 -22 -103 c-12 -56 -39 -227 -61 -378 -45 -311 -79 -501 -89
-501 -5 0 -131 31 -282 69 -151 38 -453 113 -671 166 -384 94 -398 98 -398
121 0 24 -42 54 -74 54 -8 0 -207 -129 -442 -286 -295 -198 -431 -283 -443
-278 -9 3 -31 10 -48 14 -31 7 -35 5 -75 -44 -23 -28 -117 -127 -209 -221
-193 -198 -224 -237 -240 -311 -11 -49 -17 -58 -52 -75 -53 -28 -117 -94 -159
-165 -25 -43 -46 -66 -79 -83 -24 -13 -98 -59 -165 -102 -67 -43 -152 -94
-191 -113 -45 -23 -73 -44 -81 -60 -8 -17 -19 -26 -34 -26 -13 1 -49 -12 -81
-27 l-58 -28 4 -43 c6 -55 30 -82 74 -82 42 0 67 12 113 55 19 18 51 36 70 39
19 4 66 27 104 51 75 48 103 57 87 27 -17 -32 -115 -117 -178 -156 -56 -33
-64 -43 -76 -84 -13 -45 -22 -53 -173 -165 -315 -234 -585 -407 -806 -518
-108 -54 -125 -74 -114 -133 7 -35 9 -36 49 -36 47 0 99 28 177 96 84 72 184
141 370 254 102 62 201 126 221 141 19 15 69 43 110 62 41 20 110 58 154 85
59 38 83 48 92 40 8 -7 34 -8 69 -4 55 6 55 6 43 -16 -38 -73 -128 -186 -310
-390 l-97 -110 -6 -92 c-3 -50 -8 -146 -10 -214 l-5 -123 24 -9 c31 -12 32
-25 4 -302 -11 -115 -19 -218 -17 -230 2 -15 26 -30 97 -59 52 -22 101 -45
108 -51 11 -9 -24 -25 -155 -74 l-170 -63 -48 25 c-39 20 -58 24 -92 20 -65
-9 -154 -60 -228 -133 -70 -69 -98 -118 -88 -158 15 -62 122 -107 253 -108
135 -1 199 32 250 128 l26 48 211 77 c186 67 215 75 235 65 13 -7 66 -27 116
-44 51 -17 156 -58 234 -91 78 -34 171 -68 208 -76 72 -18 193 -14 231 6 17 9
29 8 56 -5 18 -8 52 -22 74 -30 22 -8 50 -21 61 -29 19 -13 2 -20 -207 -90
-210 -70 -230 -75 -250 -61 -87 57 -236 27 -335 -68 -72 -69 -95 -149 -65
-222 18 -42 33 -50 128 -65 180 -29 315 23 337 131 l7 33 559 187 560 188 32
-25 c24 -18 33 -33 33 -53 0 -30 -24 -59 -34 -42 -4 5 -2 12 4 16 5 3 10 17
10 31 0 35 -61 61 -99 44 -22 -10 -115 -45 -286 -106 -22 -8 -53 -25 -70 -38
-26 -21 -28 -26 -18 -49 11 -24 14 -25 55 -16 24 6 88 23 143 39 55 16 132 34
171 41 74 12 184 5 184 -12 0 -5 -40 -48 -90 -97 -91 -89 -102 -110 -80 -153
15 -27 67 -25 113 6 23 16 54 54 82 103 75 129 76 130 195 157 58 13 159 40
225 60 289 89 323 97 349 80 14 -9 27 -23 30 -31 7 -19 67 -44 104 -44 107 0
225 88 287 214 53 107 65 165 72 332 l6 152 51 38 c168 126 636 447 642 441 1
-1 39 -126 84 -277 45 -151 97 -327 116 -390 35 -117 144 -506 144 -513 0 -2
19 -12 43 -21 40 -15 43 -19 55 -71 7 -30 37 -135 66 -233 29 -97 59 -200 65
-229 l13 -52 -67 -148 c-63 -138 -288 -622 -395 -849 -33 -70 -65 -120 -107
-167 -151 -166 -213 -315 -213 -509 0 -75 5 -112 26 -174 32 -99 36 -72 -115
-674 l-116 -465 -32 -2 c-18 -1 -48 -6 -67 -13 -30 -10 -37 -18 -47 -53 -6
-23 -39 -121 -74 -217 -79 -218 -105 -306 -105 -355 0 -34 -7 -44 -71 -103
-90 -85 -152 -167 -200 -267 -45 -94 -63 -160 -84 -310 -19 -137 -28 -167 -74
-234 -33 -49 -36 -59 -36 -125 0 -52 8 -91 27 -144 l27 -73 -59 -206 c-33
-113 -67 -242 -75 -286 -8 -44 -17 -82 -19 -84 -2 -2 -33 -12 -70 -23 -36 -10
-91 -30 -121 -44 -62 -28 -66 -41 -40 -117 22 -62 62 -109 111 -131 40 -17 59
-18 208 -12 l164 7 33 -25 c108 -80 293 -166 446 -207 223 -60 639 -90 786
-57 43 10 90 15 105 11 16 -3 66 -28 113 -55 91 -54 109 -57 183 -35 27 8 69
15 93 15 24 0 59 7 78 14 32 14 35 18 35 58 0 32 -8 53 -30 82 l-30 40 59 31
c176 94 292 231 331 390 6 28 10 93 8 149 l-3 100 58 22 c79 31 86 38 77 77
-21 92 -73 162 -156 208 -50 29 -52 31 -64 92 -20 104 -80 219 -156 298 -64
66 -66 70 -50 87 15 17 27 64 41 164 l6 36 67 6 c110 10 264 26 308 32 39 6
45 3 106 -48 35 -31 74 -60 85 -67 43 -23 97 -13 246 45 30 12 47 24 47 35 0
43 -15 81 -51 124 -21 26 -39 50 -38 54 0 8 96 71 109 71 5 0 10 4 10 8 0 4
20 41 45 82 66 110 72 152 52 324 -19 156 -21 216 -9 216 12 0 83 -52 101 -73
27 -33 81 -39 162 -17 170 46 158 46 256 2 322 -145 712 -214 1113 -197 l155
6 64 -41 c35 -23 76 -46 91 -50 38 -11 102 4 180 43 57 28 65 36 68 62 3 27
-3 36 -43 64 -25 18 -45 36 -45 40 0 5 16 21 35 35 83 64 96 137 85 481 -14
409 -19 420 -277 589 -73 48 -133 90 -133 94 0 14 54 40 120 57 78 21 131 49
149 77 7 12 15 46 18 77 7 77 -20 144 -113 282 -41 61 -76 121 -79 132 -2 12
-20 139 -40 282 -20 143 -40 261 -45 263 -28 10 -60 47 -65 75 -4 18 -1 62 5
100 6 37 17 197 25 355 17 322 25 377 79 511 35 87 39 106 46 230 l8 136 56
110 c31 60 117 247 191 415 l134 305 50 -3 49 -2 30 77 c40 105 200 466 216
488 12 17 31 18 372 6 197 -7 377 -15 398 -19 l40 -7 33 -210 c75 -470 152
-1017 223 -1578 29 -229 30 -241 15 -312 -37 -183 2 -340 111 -441 l55 -52 30
-188 c17 -104 41 -263 53 -354 l22 -165 -28 -50 c-21 -39 -30 -74 -39 -150
-19 -167 -28 -191 -107 -268 -51 -49 -87 -97 -132 -178 -96 -169 -104 -196
-104 -321 l0 -106 -55 -7 c-130 -15 -221 -49 -286 -107 -49 -43 -70 -89 -84
-183 -6 -44 -29 -151 -51 -239 -59 -234 -56 -330 13 -412 15 -18 27 -35 27
-38 0 -3 -19 -15 -42 -27 -24 -12 -46 -27 -50 -33 -25 -38 10 -85 97 -129 28
-14 64 -35 80 -46 36 -25 74 -26 178 -6 122 23 177 20 291 -20 285 -98 752
-161 1081 -145 l140 7 94 -48 c123 -65 149 -64 301 1 89 38 116 53 118 70 4
24 -25 74 -67 114 l-30 29 17 41 c19 46 20 98 9 500 -6 230 -7 241 -32 291
-39 81 -97 126 -252 201 -195 92 -206 99 -217 130 -7 21 -5 30 8 40 15 11 92
33 168 49 70 14 88 128 44 284 -13 47 -29 111 -36 141 -19 82 -48 155 -70 175
-20 18 -20 18 0 50 11 18 27 51 35 75 l15 43 -89 189 c-89 188 -145 282 -206
348 -31 34 -33 40 -49 185 -9 83 -30 246 -47 363 l-30 212 22 63 c27 76 38
263 20 348 -17 79 -62 169 -104 206 l-37 32 -10 138 c-9 129 -15 193 -40 467
-5 60 -10 135 -10 167 l0 57 45 26 c25 15 45 31 45 36 0 4 -7 61 -15 127 -18
148 -32 335 -45 618 -39 827 -46 899 -102 1010 -39 77 -85 134 -137 165 -22
14 -41 27 -41 30 0 3 100 30 223 59 122 30 287 73 367 96 138 40 145 43 152
71 3 16 12 175 18 354 25 723 59 1420 86 1765 l6 81 -88 41 c-128 59 -223 98
-649 263 -209 81 -415 164 -459 184 -43 20 -94 36 -113 36 l-34 0 3 203 c2
111 -1 216 -5 233 -8 31 -8 31 -210 84 -197 51 -508 143 -529 156 -6 4 -33 6
-61 5 -28 0 -76 8 -107 19 -30 10 -146 42 -258 69 -112 28 -208 53 -213 56 -4
3 -39 17 -76 31 -76 29 -215 39 -333 24z m-381 -5211 c-11 -21 -8 -26 24 -53
l36 -31 -93 -195 c-51 -107 -174 -357 -273 -555 -99 -198 -194 -399 -211 -447
-71 -198 -81 -367 -28 -485 16 -35 35 -68 42 -74 23 -19 16 -137 -36 -583 -30
-255 -22 -232 -87 -253 -64 -22 -50 4 -164 -317 -39 -111 -89 -226 -144 -332
-82 -156 -125 -275 -125 -345 0 -22 -18 -43 -92 -109 -99 -87 -98 -86 -159
-256 -21 -62 -62 -164 -90 -226 -43 -94 -52 -125 -56 -188 -4 -54 -1 -85 10
-112 l15 -36 -58 -26 c-31 -14 -62 -26 -67 -26 -6 0 -13 22 -17 49 -14 108
-107 235 -232 318 l-55 36 43 22 c103 52 131 237 50 330 -17 19 -41 69 -57
117 -34 103 -50 135 -85 173 -34 37 -39 61 -50 260 -11 183 -20 225 -62 278
l-29 38 16 212 c9 116 23 284 30 372 8 88 24 278 37 423 l23 264 28 -6 c25 -5
31 -1 53 37 50 83 438 806 556 1037 183 357 193 369 325 414 54 19 206 75 338
126 l239 92 146 13 c154 14 175 19 230 58 38 27 48 21 29 -14z m-4726 -7106
c-7 -2 -19 -2 -25 0 -7 3 -2 5 12 5 14 0 19 -2 13 -5z m100 0 c-7 -2 -19 -2
-25 0 -7 3 -2 5 12 5 14 0 19 -2 13 -5z"/>
</g>
</svg>
